<?xml version="1.0" encoding="iso-8859-1"?>
<!-- Generator: Adobe Illustrator 13.0.2, SVG Export Plug-In . SVG Version: 6.00 Build 14948)  -->
<!DOCTYPE svg PUBLIC "-//W3C//DTD SVG 1.1//EN" "http://www.w3.org/Graphics/SVG/1.1/DTD/svg11.dtd">
<svg version="1.1" id="frame_xA0_Image_1_" xmlns="http://www.w3.org/2000/svg" xmlns:xlink="http://www.w3.org/1999/xlink" x="0px"
	 y="0px" width="296.16px" height="455.52px" viewBox="0 0 296.16 455.52" style="enable-background:new 0 0 296.16 455.52;"
	 xml:space="preserve">
<g>
	<path style="fill-rule:evenodd;clip-rule:evenodd;" d="M250.08,2.4c0.16,0,0.32,0,0.479,0c0,0.16,0,0.32,0,0.48
		c-0.159,0-0.319,0-0.479,0C250.08,2.72,250.08,2.56,250.08,2.4z"/>
	<path style="fill-rule:evenodd;clip-rule:evenodd;" d="M1.68,58.56c0.7-0.353,0.7,1.073,0,0.72C1.68,59.04,1.68,58.8,1.68,58.56z"
		/>
	<path style="fill-rule:evenodd;clip-rule:evenodd;" d="M45.12,437.28c0.512-0.112,0.457,0.343,0.48,0.72
		c-0.194-0.046-0.239-0.241-0.48-0.24C45.12,437.6,45.12,437.44,45.12,437.28z"/>
	<path style="fill-rule:evenodd;clip-rule:evenodd;" d="M2.16,284.4c-0.204,0.044-0.227-0.094-0.24-0.24
		c-0.062-1.032,0.542,0.067,0.48,0.479c0.499-1.138,0.061-2.366,0-3.6c-0.147-3.005-0.468-8.556-0.24-10.8
		c0.141-1.389,0.033-3.775,0-5.76c-0.011-0.646-0.247-1.303-0.24-1.921c0.007-0.679,0.462-1.227,0.48-1.92
		c0.072-2.79-0.443-5.73-0.48-8.64c-0.073-5.808,0.391-11.838,0.48-17.76c0.088-5.827,0.619-11.629,0.48-16.8
		c0.411-5.711,0.017-10.862,0-16.32c-0.015-4.903-1.264-9.554-0.96-14.4c0.061-0.966,0.397-1.937,0.48-2.88
		c0.278-3.17-0.221-6.472,0-9.84c0.218-3.327,0.674-6.714,0.72-10.08c0.058-4.235-0.497-8.664-0.48-12.96
		c0.023-5.734,0.361-11.142,0.24-16.8c-0.038-1.769-0.078-3.492,0-5.28c0.326-7.485-0.386-13.923,0-21.84
		c0.194-3.975-0.51-8.123,0.24-11.76c0.185-0.897,0.487-1.62,0.96-2.4c0.416-1.295-1.529-0.231-1.2-1.44
		c0.226-1.925,0.326-4.051,0.24-6c-0.095-2.168-0.703-6.345-0.72-9.36C2.392,74.723,2.889,73.358,2.88,72
		c-0.008-1.37-0.427-2.69-0.48-4.08c-0.107-2.799,0.41-5.709,0.24-8.64c-0.069-1.185-0.647-2.411-0.72-3.6
		c-0.214-3.497,0.337-7.232,0.48-11.04c0.516-13.782,0.279-28.437,0-41.28c8.842,0.171,17.133,0.458,26.88-0.24
		C39.072,2.418,49.498,3.345,60,3.36c25.505,0.038,49.027,0,72.48,0c7.819,0,15.76,0.306,23.52,0.48
		c17.149,0.385,33.492-0.683,53.28-0.24c3.267,0.073,6.515,0.341,10.08,0c0.373-0.036,0.636-0.477,0.72-0.48
		c0.217-0.009,0.43,0.48,0.479,0.48c1.246-0.021,2.186-0.135,3.36-0.24c7.392-0.661,15.664-0.173,22.08,0
		c3.779,0.102,7.256-0.302,10.8-0.24c3.774,0.066,7.587,0.275,11.28,0.48c8.188,0.454,16.735-1.272,23.76,0
		c0.599,2.997,0.223,6.415,0.48,8.88c1.086,10.392-0.02,24.747,0.239,34.32c0.037,1.352,0.242,2.754,0.24,4.08
		c-0.005,4.135-0.604,8.333-0.479,12.48c0.037,1.236,0.464,2.573,0.479,3.84c0.016,1.249-0.453,2.589-0.479,3.84
		c-0.127,6.023,0.032,14.934,0,20.88c-0.019,3.312,0.253,6.36,0.239,9.36c-0.005,1.166-0.232,2.42-0.239,3.6
		c-0.015,2.354,0.417,4.75,0.479,7.2c0.084,3.271-1.124,6.785,0,10.08c-1.14,7.112,0.036,14.397,0,21.84
		c-0.006,1.328-0.458,2.728-0.479,4.08c-0.025,1.51,0.3,2.982,0.239,4.56c-0.181,4.769-0.245,9.852-0.239,14.88
		c0.017,14.378,0.21,28.575,0.239,42.48c0.005,2.047,0.162,4.042,0.24,6c0.233,5.848-0.187,10.824-0.479,17.28
		c-0.132,2.893,0.168,5.892,0,8.88c-0.04,0.701-0.234,1.186-0.24,1.92c-0.021,2.382,0.347,4.221,0.24,6
		c-0.258,4.298-1.161,8.507,0.479,12.72c-0.28-0.069-0.693-1.361-0.72-0.24c0.303,1.816-0.079,3.028,0.479,4.32
		c-0.938,4.625-0.188,9.291-0.239,13.68c-0.041,3.457-0.412,6.908-0.24,10.561c0.19,4.035-0.239,8.021,0,11.76
		c0.14,2.187-0.199,4.096-0.24,6.24c-0.144,7.582,0.013,15.351,0,22.8c-0.004,2.456,0.17,4.95,0.24,7.44
		c0.159,5.647-0.451,11.603-0.24,17.52c0.197,5.533,0.72,11.2,0.48,16.8c-0.078,1.828-0.555,3.026-0.48,4.801
		c0.044,1.04,0.453,1.884,0.48,2.88c0.069,2.544-0.511,5.226-0.48,7.92c0.094,8.304,0,16.09,0,24.479
		c0,11.289,0.492,23.635,0,34.561c-0.571,1.108-1.971,1.39-2.64,2.399c-13.022,0.727-30.165,0.187-43.681,0.24
		c-7.375,0.029-14.446,0.236-20.64-0.72c-2.771,1.074-5.563,0.289-8.399,0.24c-5.766-0.1-11.577,0.669-17.28,0.72
		c-5.838,0.052-12.379-0.596-19.92-0.48c-3.872,0.06-7.971-0.017-11.28-0.239c-10.669-0.721-21.958-0.098-34.56,0.479
		c-18.192,0.833-40.217,0.734-59.52,0.24c-3.838-0.099-7.68-0.288-11.52-0.24c-3.924,0.049-7.882,0.18-11.76,0
		c-8.001-0.371-15.976,0.229-24-0.24c-8.214-0.48-16.54-1.484-24.96-2.16c-0.075-0.773-0.654-1.523-0.72-2.399
		c-0.068-0.895,0.829-2.498,0-2.16c-0.565-0.202,0.015-1.237,0.24-1.44c-0.209-7.341,0.093-14.762,0.48-20.88
		c0.046-0.73,0.233-1.475,0.24-2.16c0.017-1.74-0.676-3.539-0.72-5.279c-0.011-0.442,0.459-0.788,0.48-1.2
		c0.017-0.349-0.474-0.777-0.48-1.2c-0.055-3.999,1.073-9.24,0.72-13.439c-0.107-1.279-0.902-2.55-0.96-3.841
		c-0.082-1.821,0.827-3.738,0.96-5.52c0.127-1.695-0.085-3.345,0-5.04c0.207-4.127,0.148-9.248,0.24-14.64
		c0.007-0.431,0.479-0.862,0.48-0.96c0.003-0.353-0.508-0.573-0.48-0.96c0.055-0.763,0.429-1.388,0.48-2.16
		c0.238-3.621-0.795-8.858,0-13.2c-0.575-3.077-0.556-6.201-0.72-9.36c-0.255-4.9,0.211-9.883,0.48-14.64
		c0.213-3.772-0.703-10.155,0-14.16c0.368-1.545-0.696-0.167-0.72-1.2c1.607-1.683,0.499-4.721,0.48-7.68
		c-0.01-1.551,0.259-3.235,0.24-4.8c-0.053-4.344,0.031-9.376,0-15.12C2.468,284.732,2.173,284.707,2.16,284.4z M39.84,13.2
		c0.873,1.085,1.337,2.474,2.64,3.12c4.024-0.638,9.674-0.646,13.92-0.24c-0.459-1.381-0.086-3.593-0.96-4.56
		c0.632,0.072,0.788-0.333,0.72-0.96c-0.417-1.958,0.396-3.206-0.48-5.04c-7.938,0-15.88,0.322-22.8-0.48
		C34.895,8.03,37.61,10.428,39.84,13.2z M85.2,5.28c-1.269,0.324-2.773-0.907-3.36,0.24c2.895,3.105,5.557,6.443,8.4,9.6
		c3.407-3.232,6.982-6.298,10.32-9.6c-6.258-1.218-6.711,3.369-10.08,5.04C88.059,9.461,87.009,6.991,85.2,5.28z M253.68,5.04
		c-1.068,0.518-2.663,0.141-3.12,0.72c4.429,3.252,8.106,7.254,12.24,10.8c1.69-0.15,4.069,0.389,5.04-0.48
		C262.808,12.713,258.543,8.577,253.68,5.04z M30.24,5.28c-0.929,0.512-2.36-0.478-3.12,0.479c3.197,3.204,6.208,6.593,9.12,10.08
		c0.942-0.052,2.348,0.678,3.12,0C36.229,12.41,33.342,8.738,30.24,5.28z M71.04,5.52c-1.776,0.176-2.932-0.269-4.56-0.24
		C66.756,8.438,70.534,8.405,71.04,5.52z M73.92,5.52c-1.466,2.134-2.654,4.546-5.52,5.28c-2.812-1.909-4.19-6.529-9.6-5.04
		c2.015,2.065,4.518,3.643,6,6.24c1.78,0.246,2.395,3.851,3.84,3.84c0.141-0.001,1.958-1.787,2.64-2.4
		c0.999-0.898,3.092-2.468,2.64-3.36c0.355,0.278,0.605,0.278,0.96,0c0.983-2.058,3.164-2.917,4.32-4.8
		C77.101,5.253,76.387,5.633,73.92,5.52z M88.32,5.52c0.207,1.233,1.542,1.338,1.92,2.4c1.443-0.477,2.026-1.813,3.12-2.64
		C91.637,5.317,89.697,5.137,88.32,5.52z M119.28,6.24c3.104,3.216,6.859,5.781,9.12,9.84c1.833-0.357,4.026,1.092,5.04,0
		c-2.864-1.806-6.278-5.187-8.88-7.68c-1.852-1.775-2.468-3.8-5.52-3.12C119.022,5.698,119.094,6.026,119.28,6.24z M191.04,6.24
		c2.692,2.094,4.947,4.746,7.2,6.96c0.76,0.747,1.635,1.913,2.88,1.92c2.487-3.433,6.323-5.517,8.399-9.36
		c-5.089-1.315-5.761,3.611-9.119,4.8c-3.229-1.731-4.546-5.375-9.601-5.28C190.746,5.734,191.07,5.81,191.04,6.24z M225.6,5.52
		c-0.237,0.875-1.288,1.064-1.92,1.92c-0.141,0.191-0.064,0.775-0.239,0.96c-0.171,0.18-0.779,0.073-0.96,0.24
		c-0.942,0.867-0.997,1.674-1.921,1.68c-1.732,0.011-3.535-3.673-4.319-4.56c-1.2,0-2.4,0-3.601,0
		c1.606,3.194,4.369,5.231,6.48,7.92c0.443,0.596,0.726,1.354,1.439,1.68c0.261-0.747,1.161-0.854,0.96-1.44
		c3.184-2.417,5.572-5.627,8.16-8.64C228.054,5.449,226.697,5.546,225.6,5.52z M102.72,5.76c-0.184,3.459,0.69,6.886,0,10.08
		c7.33,0.069,14.777,0.333,23.04,0.24c-2.191-3.569-7.024-6.575-9.6-10.56C111.048,5.483,107.304,5.548,102.72,5.76z M176.64,6
		c-2.132,2.929-4.989,5.13-7.439,7.44c-1.06,0.999-2.249,1.928-3.12,3.12c8.888,0.132,13.883-1.097,22.32-0.24
		c-0.219-3.158,0.763-5.395-0.48-7.92c0.424-0.636,0.9-2.162,0.48-2.88C184.289,6.315,180.765,5.424,176.64,6z M200.64,8.4
		c1.212-0.628,2.125-1.555,2.641-2.88c-2.296,0.315-4.021-0.264-6,0.24C198.504,6.536,199.341,7.699,200.64,8.4z M218.64,5.76
		c-0.132,0.849,1.162,2.143,2.4,2.4c0.677-1.003,1.787-1.573,2.4-2.64C221.297,5.585,220.778,5.794,218.64,5.76z M232.08,16.8
		c8.929,0.028,17.721-0.728,28.08-0.24c-3.873-3.887-8.434-7.087-12.24-11.04c-2.338,0.714-5.283-0.596-7.2,0.72
		c0.072-0.633-0.332-0.788-0.96-0.72c-3.195,0.05-4.964,0.05-8.16,0C232.15,9.106,232.148,12.477,232.08,16.8z M170.16,6
		c-2.938,3.861-6.893,6.708-9.84,10.56c0.96,0,1.92,0,2.88,0c3.475-3.565,7.254-6.826,10.56-10.56
		C172.632,5.489,171.912,6.114,170.16,6z M4.56,15.6c2.792,0.012,7.588-0.925,10.08,0.72c-0.277-1.713-2.071-2.128-3.12-3.12
		C9.226,11.031,7.426,8.321,4.8,6.48C4.747,6.293,4.599,6.201,4.32,6.24C4.956,9.208,4.231,12.784,4.56,15.6z M281.04,16.56
		c3.436-0.166,6.135-0.73,9.36-0.24c-0.363-3.205-0.457-6.706-0.721-8.88C286.605,10.286,283.764,13.364,281.04,16.56z M18,15.6
		c2.607,0.078,3.913,0.126,6.48,0c-0.025-2.7-0.417-5.186-0.48-7.2c-0.053-0.187-0.201-0.279-0.48-0.24
		C22.457,11.417,19.146,12.426,18,15.6z M143.52,14.4c-1.923-1.971-3.898-4.005-5.76-5.76c-0.05-0.29-0.266-0.148-0.48,0
		c0.107,2.69-0.168,5.652,0,7.68c2.484-0.168,5.265-0.451,7.68,0C144.944,15.616,144.07,14.963,143.52,14.4z M270,16.56
		c2.019-0.141,4.614,0.294,6.24-0.24c-0.516-1.722-2.288-2.407-3.36-3.6c-0.45-0.501-0.572-1.449-0.96-1.92
		c-0.28-0.34-0.92-0.42-1.2-0.72c-0.602-0.643-0.659-1.632-1.439-1.68C269.538,11.627,270.048,13.27,270,16.56z M149.28,16.08
		c3.026,0.497,4.816-0.374,8.16,0.48c-0.095-1.696-0.396-5.182-0.96-7.2c-0.054-0.187-0.201-0.279-0.48-0.24
		C153.943,11.623,151.724,13.963,149.28,16.08z M17.04,18c-0.606,0.881-0.433,3.503-0.48,5.76c-0.049,2.349,0.023,5.056,0,7.2
		c-0.154,14.444-0.598,26.965,0,40.56c0.091,2.079,0.253,4.202,0.24,6.24c-0.064,9.747,0.153,20.282,0.24,30.96
		c0.016,1.985,0.155,3.891,0,5.76c-0.51,6.158-0.923,12.727-0.72,19.2c0.728,23.168-0.025,46.247,0,68.88
		c0.01,9.142,0.594,18.071,0.48,26.88c-0.219,16.965-0.46,34.135-0.72,51.119c-0.068,4.433,0.288,8.958,0.24,13.44
		c-0.047,4.452,0.31,8.82,0.24,13.2c-0.134,8.455-1.417,16.901-0.96,24.96c0.454,8.006,0.434,16.609,0.48,25.2
		c0.011,2.121-0.273,4.364-0.24,6.479c0.033,2.113,0.465,4.175,0.48,6.24c0.111,15.532-0.305,36.48,0.24,51.36
		c0.157,4.291,0.633,8.676,0,12.96c8.759,1.142,17.428,0.602,25.44,0.479c3.639-0.056,9.211,0.132,13.2,0
		c0.59-0.02,1.073,0.223,1.68,0.24c7.63,0.215,19.714-0.384,27.6-0.24c1.39,0.025,2.84,0.185,4.32,0.24
		c12.499,0.468,24.439-0.61,34.8-0.48c8.495,0.107,16.978,0.633,24.96,0.24c5.119-0.251,10.408,0.392,15.84,0.24
		c2.891-0.081,5.805-0.307,8.64-0.24c2.651,0.062,5.159,0.231,7.68,0.24c9.33,0.03,18.574-0.177,26.4,0
		c2.632,0.06,5.327,0.421,7.92,0.479c5.055,0.116,10.103-0.332,15.12,0c5.286,0.351,10.393-0.19,15.6-0.239
		c10.595-0.101,21.302,1.036,31.681-0.24c-0.749-2.872-0.48-5.848-0.48-8.88c0-3.062-0.231-6.247-0.24-9.36
		c-0.017-6.104-0.011-12.233,0-18.479c0.012-6.452,0.753-12.757,0.721-19.2c-0.032-6.227,0.031-12.486,0-18.72
		c-0.066-12.966-0.353-26.6,0-39.601c0.258-9.539-0.448-19.07-0.48-28.08c-0.011-2.99-0.189-6.082,0.72-8.88
		c-0.9-0.078-0.428-1.23-0.479-1.68c-0.515-4.425-0.07-9.265,0-13.2c0.238-13.305,0.537-29.171,0.479-43.44
		c-0.022-5.638,0.662-10.037,0.48-17.04c-0.237-9.109-0.248-17.897-0.48-26.88c-0.266-10.285,0.016-21.938-0.479-31.92
		c-0.509-10.239,0.325-20.857,0.24-31.68c-0.214-27.157-1.327-55.496-0.24-83.28c0.218-5.577,1.05-11.069,0-16.56
		c-11.298,0.547-22.115-0.176-32.88,0.24c-16.583,0.641-32.505-0.229-49.44,0c-2.542,0.034-4.938-0.378-7.439-0.48
		c-2.792-0.113-5.604,0.054-8.4,0.24c-10.393,0.691-20.78,0.214-31.68,0.24c-5.356,0.012-10.686,0-16.08,0
		c-5.501,0-11.082,0.185-16.56,0c-32.28-1.091-64.112,0.86-97.2-0.96C17.395,16.834,17.165,17.907,17.04,18z M4.56,23.52
		c3.595,2.964,6.748,6.372,10.08,9.6c0.077-1.523-0.203-3.403,0.24-4.56c-3.502-3.058-6.395-6.726-10.32-9.36
		C4.279,20.464,4.977,21.927,4.56,23.52z M279.6,24.24c3.477,3.964,7.024,7.856,10.801,11.52c0-1.6,0-3.2,0-4.8
		c-3.911-3.289-6.96-7.441-10.32-11.28c-0.24,0-0.48,0-0.72,0C278.854,21.179,279.971,22.183,279.6,24.24z M3.84,42.96
		c-0.026,2.289,0.24,4.446,0.24,6c3.44,0,6.88,0,10.32,0c1.036-4.119-0.376-7.884,0.48-12.72c-1.701-0.539-1.758-2.722-3.84-2.88
		c0.646-0.624-0.293-0.724-0.24-1.44c-2.601-1.559-4.391-3.928-6.48-6C4.302,30.34,3.908,37.035,3.84,42.96z M278.88,48.24
		c3.042-0.776,8.822-0.451,11.521-0.24c-0.176-3.96-0.494-5.785-0.24-10.08c-2.087-1.273-3.519-3.201-5.28-4.8
		c-1.574-1.866-3.446-3.434-4.8-5.52c-0.283-0.035-0.544-0.427-0.72,0C279.729,32.698,278.181,42.514,278.88,48.24z M289.92,50.88
		c-0.572,1.011-1.606,1.232-2.4,1.92c-1.101,0.955-1.809,2.383-2.88,3.36c-1.534,1.401-3.761,2.155-4.319,4.32
		c2.996,2.51,6.272,6.091,8.88,8.88c0.154,0.166,0.753,1.579,1.2,0.72c0.165-1.731-0.531-2.895,0-4.32
		c-1.219-2.38-6.925-4.007-4.561-7.2c0.992-1.339,3.475-2.458,4.561-3.6c-0.146-1.505,0.182-2.539,0.239-3.84
		C290.333,51.107,290.308,50.812,289.92,50.88z M4.08,54.72c0.905,0.579,1.775,1.458,2.64,2.4c0.776,0.846,2.115,2.004,2.16,2.88
		c0.149,2.892-5.862,3.737-4.56,8.4c3.161-2.839,6.727-5.273,9.6-8.4c-2.946-1.498-5.056-4.963-7.68-6
		c-0.374-1.066-1.1-1.78-2.16-2.16C4.08,52.8,4.08,53.76,4.08,54.72z M4.56,63.12c0.671-1.089,1.743-1.777,2.4-2.88
		c-0.821-1.019-1.612-2.068-2.88-2.64C4.676,59.038,4.014,61.065,4.56,63.12z M287.28,60.24c1.106,0.653,1.372,2.147,2.88,2.4
		c0.171-1.26,0.241-3.021,0.24-5.04C288.947,58.067,288.061,59.101,287.28,60.24z M8.4,79.68c-1.205,2.314-4.216,2.824-3.6,6.96
		c2.427-1.253,3.901-3.459,6-5.04c0.615-0.745,2.064-0.656,2.4-1.68c-2.876-2.404-5.453-5.107-7.92-7.92c-0.24,0-0.48,0-0.72,0
		C3.664,76.736,7.354,76.886,8.4,79.68z M281.04,80.64c0.659,0.541,1.728,1.682,2.64,1.2c-0.208,0.929,0.587,0.854,0.721,1.44
		c2.498,1.102,3.762,3.438,6,4.8c0.435-4.275-3.053-4.628-4.08-7.44c0.73-1.75,2.554-2.406,3.84-3.6
		c-0.385-1.417,0.679-3.702-0.24-4.08C287.676,76.355,283.792,77.927,281.04,80.64z M10.8,75.6c0.385-0.668-1.036-0.664-0.96-0.24
		C10.33,75.779,10.311,75.181,10.8,75.6z M5.04,81.6c0.362-0.758,1.213-1.027,1.2-2.16C5.755,78.885,5.442,78.158,4.56,78
		C4.55,79.37,4.652,80.628,5.04,81.6z M289.92,79.44c-0.308,0.652-1.229,0.691-1.439,1.44c0.605,0.674,1.203,1.357,1.92,1.92
		C290.134,81.786,290.965,79.675,289.92,79.44z M6.72,91.44c-0.407-0.756-1.116-0.299-1.92-0.24c0.077,1.711,0.504,3.079,0.48,4.56
		c-0.034,2.11-0.157,2.124,0.96,3.6c0.457,0.604,0.983,1.457,1.2,1.68c0.513,0.528,1.334,0.68,1.92,1.2
		c0.977,0.867,1.68,2.148,2.64,3.12c1.086,1.1,2.133,2.117,3.12,2.88c-0.478-6.949,0.095-12.012-0.24-17.28
		C13.166,90.426,8.343,90.346,6.72,91.44z M279.12,91.2c0.127,6.024-0.178,12.282,0.24,17.04c1.132-0.471,2.895-2.383,3.84-3.84
		c1.238-0.731,2.299-2.208,3.6-3.6c0.903-0.967,3.032-2.761,3.36-3.84c0.573-1.889-0.1-3.972-0.24-6.24
		C286.09,90.92,281.651,90.278,279.12,91.2z M5.04,104.88c3.222,3.898,6.467,7.772,10.08,11.28c0-1.44,0-2.88,0-4.32
		c-2.996-4.284-6.384-8.176-10.32-11.52C4.654,102.065,4.984,103.336,5.04,104.88z M279.6,112.08c-0.412,0.843,0.25,2.39,0,3.84
		c3.99-3.209,6.551-7.849,10.561-11.04c-0.127-1.327,0.674-2.735,0-3.84c-0.053-0.187-0.201-0.279-0.48-0.24
		C286.574,104.813,282.832,108.192,279.6,112.08z M279.6,119.04c0.255,2.534,0.218,4.379,0,7.2c3.324-2.276,6.392-4.809,8.881-7.92
		C285.979,118.116,281.543,119.361,279.6,119.04z M6,119.28c0.433,1.16,1.571,1.857,2.4,2.64c0.864,0.815,1.779,1.583,2.64,2.4
		c0.72,1.6,1.892,2.748,3.36,3.6c-0.185-3.225,0.315-5.764,0.24-8.88C11.869,119.229,9.041,119.36,6,119.28z M279.36,138.48
		c1.966-0.833,5.248-0.352,7.92-0.48c-1.962-2.758-5.224-6.296-7.681-9.36C279.568,130.454,278.676,135.323,279.36,138.48z
		 M9.12,138c-0.514,0.517-1.301,1.115-1.44,1.92c1.77,0.23,4.803-0.084,6.96-0.24c-0.255-2.065-0.283-4.357-0.24-6.72
		c-0.053-0.187-0.201-0.279-0.48-0.24C12.561,134.783,10.667,136.444,9.12,138z M279.12,145.44c4.042,2.918,7.214,6.706,11.04,9.84
		c0.585-2.913-0.963-3.856-2.641-5.52c-2.906-2.883-5.94-5.979-8.64-8.16C279.053,142.788,279.21,143.99,279.12,145.44z
		 M4.56,155.76c-0.167,1.526,0.406,2.314,0.24,3.84c2.099-2.135,3.921-4.189,6-6.24c1.249-1.232,2.593-2.366,3.84-3.6c0-2,0-4,0-6
		c-0.053-0.187-0.201-0.279-0.48-0.24C11.19,147.83,7.773,151.693,4.56,155.76z M279.6,148.32c-0.051-0.29-0.266-0.147-0.479,0
		c0.423,7.674-0.227,16.723,0.479,25.92c3.257,0.17,8.139-0.458,10.561-0.24c-0.822-2.789,0.427-6.177-0.72-8.64
		c0.86-0.603,0.351-2.853,0.479-4.8c0.053-0.799,0.31-1.517,0.24-2.16C286.656,155.024,283.06,151.741,279.6,148.32z M14.16,153.36
		c-3.536,3.024-6.752,6.368-9.12,10.56c0.527,4.199-0.01,8.026-0.48,12.72c4.213,0.339,6.33-0.079,9.84-0.24
		c0.37-7.541,0.108-15.234,0.24-23.04C14.48,153.36,14.32,153.36,14.16,153.36z M281.52,185.04c2.881,2.64,5.613,5.427,8.641,7.92
		c0-1.04,0-2.08,0-3.12c-1.297-1.854-4.46-2.669-4.08-5.04c0.27-1.687,2.785-1.943,3.84-3.36c-0.409-1.476,0.806-3.25-0.24-3.84
		C287.242,180.362,283.878,182.198,281.52,185.04z M4.32,181.68c0.851,2.017,4.104,2.682,4.08,4.8
		c-0.027,2.481-5.222,3.126-4.32,7.2c1.805-0.706,2.836-2.443,4.32-3.6c1.455-1.135,3.463-1.787,4.32-3.6
		c-2.812-2.228-5.021-5.06-8.16-6.96C4.634,180.394,4.522,181.082,4.32,181.68z M288.24,185.28c0.311,0.819,1.211,2.026,1.92,1.68
		c-0.049-1.231,0.213-2.773-0.48-3.36C289.078,184.039,288.846,184.846,288.24,185.28z M3.84,188.88
		c1.863,0.023,1.496-2.185,2.4-3.12c-0.885-0.235-1.063-1.177-1.92-1.44C3.948,185.698,3.981,187.973,3.84,188.88z M289.68,196.8
		c-0.189,0.17-0.077,0.512-0.239,0.72c-2.071,2.659-4.943,4.569-6.721,7.44c2.291,2.909,5.071,5.329,7.44,8.16
		c-0.188-1.547,0.356-2.363,0.24-3.84c-1.215-1.585-3.331-2.269-3.841-4.56c1.101-1.38,1.894-3.067,3.601-3.84
		c0.371-1.43,0.083-2.94,0.24-4.08C290.16,196.8,289.92,196.8,289.68,196.8z M8.88,204.96c0.098,1.82-3.401,2.974-4.08,5.04
		c-0.225,0.686,0.138,1.825,0.24,2.88c1.286-0.147,1.466-1.422,2.16-2.16c1.91-2.032,4.77-3.312,6-5.76
		c-3.165-2.195-5.403-5.317-8.64-7.44C3.047,202.612,8.745,202.429,8.88,204.96z M4.8,207.36c0.998-0.443,1.641-1.239,1.92-2.4
		c-0.556-0.564-0.787-1.453-1.92-1.44C4.8,204.8,4.8,206.08,4.8,207.36z M289.68,203.52c-0.248,0.632-0.951,0.808-1.199,1.44
		c0.822,0.217,0.485,1.594,1.68,1.44C289.909,205.531,290.704,203.616,289.68,203.52z M280.56,216
		c-0.329,7.609-1.169,15.361-0.479,22.32c1.99-1.609,3.463-3.736,5.76-5.04c0.956-1.685,2.188-3.093,4.08-3.84
		c0.062-5.834-0.128-9.099,0.24-13.681C287.158,216.106,283.725,216.519,280.56,216z M11.76,216c-2.187-0.099-4.529,0.554-6.96,0.72
		c0.03,3.821-0.042,8.716,0,11.76c3.785,2.615,6.246,6.554,10.08,9.12c-0.186-8.061,0.586-14.014-0.48-21.6
		C13.732,216.893,12.807,216.047,11.76,216z M4.32,234.96c3.223,1.633,5.321,4.549,7.68,6.72c0.765,0.704,1.693,1.5,2.64,1.92
		c-0.359-1.374,0.027-2.033,0-3.6c-3.962-2.358-6.105-6.535-10.08-8.88C4.097,232.549,4.266,233.141,4.32,234.96z M279.84,242.16
		c-0.006,1.514,0.095,3.135-0.24,4.32c3.939-2.087,6.474-6.772,10.08-8.4c0.103-2.283-0.107-3.437,0.24-5.521
		c-0.053-0.187-0.201-0.278-0.479-0.239C286.621,235.98,282.669,238.509,279.84,242.16z M6,247.2c1.689,2.723,4.252,5.42,6.24,7.68
		c0.646,0.735,1.417,1.97,2.4,1.92c0.053-3.564-0.304-6.586-0.24-9.6C11.739,246.595,9.307,247.002,6,247.2z M279.84,251.52
		c-0.01,1.099,0.014,2.505,0,3.841c-0.014,1.432-0.315,3.177,0.24,3.359c2.665-2.295,5.225-4.695,7.439-7.439
		C284.725,250.832,282.364,251.842,279.84,251.52z M6.48,268.56c2.729-0.145,5.162,0.357,7.68,0c0.294-0.744,0.397-2.408-0.24-3.359
		c0.805-0.488,0.708-4.439,0.24-4.561C11.749,263.429,8.82,265.7,6.48,268.56z M279.6,269.76c3.149,0.16,4.024,0.038,7.2-0.24
		c-2.141-2.419-4.617-4.502-7.2-6.479C279.637,264.515,279.482,268.204,279.6,269.76z M6.24,280.32c-0.83,0.13-0.9,1.02-1.68,1.199
		c0.14,1.426-0.203,3.629,0,4.32c1.306-1.4,2.925-3.227,4.8-5.04c1.266-1.224,4.598-3.672,5.04-5.04
		c0.035-0.106,0.093-4.027-0.48-3.6C11.632,275.152,8.591,277.392,6.24,280.32z M278.88,277.2c3.563,3.316,6.422,7.338,10.08,10.56
		c0.267-1.438-0.138-2.863,0-4.8c-1.232-1.439-2.754-2.842-4.32-4.32c-1.536-1.451-3.698-2.743-4.56-4.08
		c-0.312-0.482,0.255-1.034-0.48-0.96c-0.159,0-0.319,0-0.479,0C279.01,274.77,279.371,276.411,278.88,277.2z M5.76,288.72
		c-0.164,0.477-1.43-0.149-1.2,0.721c-0.163,4.938,0.412,8.913,0,12.96c3.339,0.021,6.321,0.398,9.84,0.239
		c-0.394-8.079-0.822-16.103,0-23.04c-0.317-0.003-0.219-0.42-0.48-0.479C11.353,282.473,7.369,284.409,5.76,288.72z M279.6,299.76
		c0.038,0.807-0.8,1.767,0.24,2.4c-0.397,0.695,0.568-0.468,1.2-0.24c1.925,0.084,5.692,0.15,7.92-0.24
		c-0.33-4.105-0.286-7.73,0-10.8c-3.493-3.307-6.221-7.379-9.84-10.56C279.054,287.275,279.319,293.811,279.6,299.76z
		 M282.72,310.56c-0.425,0.318-2.673,1.155-2.64,1.921c0.02,0.442,1.416,0.744,1.92,1.199c1.825,1.649,4.933,5.595,6.48,6.96
		c0.305-0.974,0.443-2.115,0.479-3.359c-1.31-1.651-3.506-2.414-4.56-4.32c1.204-1.756,2.669-3.251,4.56-4.32
		c-0.259-0.94,0.556-2.955-0.479-3.12C286.77,306.808,284.271,309.4,282.72,310.56z M8.4,312.72c-1.036,2.755-5.028,3.73-4.08,7.681
		c2.803-2.398,5.009-5.392,7.92-7.681c-3.118-1.762-5.325-4.435-7.68-6.96C3.586,309.52,7.642,309.934,8.4,312.72z M280.08,306.72
		c-0.033-0.446-0.158-0.802-0.48-0.96C279.654,306.186,279.358,306.962,280.08,306.72z M4.8,315.12
		c0.529-0.751,0.752-1.808,1.68-2.16c-0.483-0.957-0.863-2.017-2.16-2.16C4.807,312.428,3.716,313.71,4.8,315.12z M286.8,313.2
		c1.069,0.051,0.991,1.249,2.16,1.2c0.042-1.492-0.27-1.856,0-3.12C287.753,311.433,287.226,312.266,286.8,313.2z M8.4,331.2
		c-1.4,1.56-2.383,3.536-4.32,4.56c0,0.88,0,1.76,0,2.641c1.602-0.725,2.815-2.011,4.08-3.12c1.315-1.153,2.489-2.466,4.08-3.36
		c-2.215-2.905-4.951-5.289-7.92-7.439C3.878,328.522,7.41,328.59,8.4,331.2z M281.28,332.88c0.667,1.786,2.36,2.82,3.6,4.08
		c1.308,1.329,2.418,2.864,4.08,3.84c0.784-4.544-2.727-4.793-4.32-6.96c0.243-2.234,3.609-3.687,4.08-5.76
		c0.104-0.454,0.348-2.151-0.479-2.64C286.022,328.022,284.029,330.829,281.28,332.88z M4.08,334.08
		c1.214-0.466,1.651-1.709,2.16-2.88c-0.569-0.632-0.954-1.447-1.92-1.681C4.678,330.711,3.671,332.912,4.08,334.08z M286.56,333.36
		c1.051,0.149,1.173,1.228,2.16,1.439c0.42-0.499-0.262-2.46,0.24-3.84C287.612,331.212,286.962,332.162,286.56,333.36z
		 M4.56,351.36c0.989,0.771,1.622,1.897,2.88,2.399c1.055,1.89,3.459,3.729,5.04,5.04c0.465,0.386,1.06,1.947,1.68,0.96
		c-0.082-4.708-0.567-11.599-0.24-17.279c-2.88-0.643-6.927,0.528-9.84-0.48C4.223,345.605,4.503,348.046,4.56,351.36z
		 M279.84,343.92c-0.02,5.831,0.1,14.17-0.24,18.72c2.311-3.13,5.077-5.803,7.44-8.88c0.649-0.31,1.483-0.437,1.68-1.2
		c0.04-1.882-0.052-4.351,0-6.239c0.026-0.951,0.862-2.197-0.239-2.641C285.881,344.276,281.855,344.748,279.84,343.92z
		 M4.56,358.56c3.368,2.872,6.029,6.451,9.6,9.12c0.006-1.446-0.409-2.471-0.24-4.08c-2.947-3.132-6.317-5.842-9.12-9.119
		C4.295,355.415,4.68,357.24,4.56,358.56z M288.72,360.72c0.361-1.491,0.209-3.026,0-4.56c-0.053-0.188-0.201-0.279-0.479-0.24
		c-2.498,2.622-4.732,5.508-7.2,8.16c-0.313,0.567-1.523,0.236-1.44,1.2c-0.095,0.742,0.068,3.287,0,4.8
		C282.68,367,285.331,363.491,288.72,360.72z M5.52,370.32c2.735,3.185,5.857,5.982,8.88,8.88c0.189-3.499-0.076-6.583-0.24-9.12
		C11.068,370.377,9.07,370.11,5.52,370.32z M279.36,373.44c0.427,3.649,0.575,5.289,0.239,9.359c1.957-0.822,2.46-2.987,3.601-4.56
		c1.267-1.747,3.227-2.964,4.319-4.8C284.791,373.359,282.688,373.665,279.36,373.44z M13.92,383.76
		c-2.316,3.124-5.74,5.14-8.16,8.16c3.249-0.015,6.327-0.518,8.64-0.24c0.025-3.159-0.019-5.7,0.24-7.92
		C14.4,383.76,14.16,383.76,13.92,383.76z M279.36,394.32c1.708,1.413,5.39,0.427,7.92,0.479c-2.239-2.641-5.183-4.577-7.44-7.2
		C279.215,389.375,279.961,392.521,279.36,394.32z M1.68,393.36c-0.103,1.143,0.285,1.794,0.72,2.399
		c1.763,0.031,2.538-0.37,2.64-2.399C3.569,393.292,2.55,392.935,1.68,393.36z M4.08,404.4c0.12,1.319-0.265,3.145,0.24,4.08
		c2.438-2.229,4.839-4.081,7.2-6.48c0.974-0.989,2.545-2.357,2.88-3.36c0.398-1.192-0.067-2.641,0.24-4.08
		c-0.053-0.187-0.201-0.278-0.48-0.239C10.922,397.802,7.925,401.524,4.08,404.4z M279.36,403.44
		c0.802,0.237,1.117,0.962,1.92,1.199c0.004,0.717,0.624,0.816,0.72,1.44c2.023,0.949,2.942,2.831,4.32,4.32
		c0.443,0.479,1.005,0.76,1.439,1.199c0.294,0.298,0.526,1.47,1.2,0.96c0.18-1.939-0.286-3.233-0.24-5.04
		c-3.05-2.949-6.253-5.746-9.359-8.64C279.151,400.413,278.999,401.948,279.36,403.44z M5.28,411.84
		c-0.315,0.245-0.884,0.235-1.2,0.48c0.063,2.803-0.215,5.579,0.48,7.199c1.682,0.162,2.784-0.255,3.6-0.96
		c0.289,1.361,4.384,0.491,6.24,0.48c-0.744-6.141,0.022-10.967,0-16.56c-0.053-0.188-0.201-0.279-0.48-0.24
		C11.681,406.08,7.6,408.08,5.28,411.84z M279.36,421.68c3.701,0.261,6.107-0.662,9.6,0.24c-0.252-1.559-0.273-3.801-0.24-6.24
		c-3.258-3.062-6.317-6.322-9.6-9.359C279.794,411.382,278.86,417.007,279.36,421.68z M12.96,421.2
		c0.601,0.04,0.751-0.369,0.96-0.72c-0.32,0-0.64,0-0.96,0C12.96,420.72,12.96,420.96,12.96,421.2z M4.08,427.44
		c0.45,0.749,1.077,1.323,1.2,2.399c1.197,0.507,1.443,1.98,2.16,2.88c0.699,0.877,2.102,1.278,2.16,2.641
		c-2.412,2.63-6.983,4.103-6,9.359c0.902,0.022,0.558-1.202,1.2-1.439c2.458-1.223,4.32-3.04,6-5.04
		c1.062-0.938,2.625-1.376,3.12-2.88c-2.374-2.427-3.907-5.693-6.72-7.681c-0.815-1.744-1.749-3.371-3.12-4.56
		C4.64,424.979,4.087,425.227,4.08,427.44z M287.76,424.56c-2.928,3.391-6.145,8.527-8.64,11.04c0.841,1.239,1.994,2.166,3.36,2.881
		c1.708,2.371,3.835,4.324,6.239,6c0.167-0.836,0.098-1.77,0.24-3.12c-2.04-2.12-4.806-3.515-6-6.48
		c1.662-2.818,4.019-4.941,6-7.439c-0.808-1.533,0.04-1.521,0-3.12c-0.418,0.018-0.746-0.054-0.96-0.24
		C287.946,424.267,287.993,424.554,287.76,424.56z M285.12,435.12c1.352,0.808,2.614,1.706,3.84,2.64c0-2.16,0-4.319,0-6.479
		C287.117,431.997,286.225,433.665,285.12,435.12z M4.56,436.32c0.794-0.486,1.883-0.677,1.92-1.92
		c-0.785-0.975-1.246-2.274-2.4-2.881C4.113,433.357,3.351,434.946,4.56,436.32z M110.4,436.8c-3.271,4.249-7.056,7.983-10.08,12.48
		c6.739-0.141,15.154-0.34,24.24-0.24c-0.042-1.538,0.116-3.085,0.24-4.56c0.258-3.066-0.684-5.912,0.24-8.16
		C119.951,436.271,115.364,436.724,110.4,436.8z M132,436.8c-1.284,0.536-3.48-0.988-4.32,0c3.995,3.206,7.411,6.989,10.56,11.04
		c2.052-4.428,5.738-7.222,8.4-11.04c-1.678-0.257-2.807,0.297-4.32-0.24c-0.285,0.755-0.81,1.271-0.96,2.16
		c-2.075,0.405-1.818,3.143-4.08,3.36C135.229,440.61,133.748,438.571,132,436.8z M24.48,446.4c1-0.04,0.837-1.243,1.44-1.681
		c2.141-1.516,4.043-4.316,5.76-6.239c0.432-0.484,2.089-1.146,1.2-1.921c-0.241,0.955-1.446,0.23-2.16,0.24
		c-1.344,2.416-3.312,4.208-5.76,5.521c-2.844-1.557-2.485-6.315-7.44-5.761C19.829,439.851,22.36,442.92,24.48,446.4z
		 M36.24,437.04c-0.089,3.781,0.437,7.991,0.72,11.52c5.9-0.826,13.566-0.066,19.68,0c-2.649-3.59-5.259-7.221-8.16-10.56
		c0.198-0.679-0.338-0.622-0.24-1.2C44.434,437.189,40.294,436.495,36.24,437.04z M137.52,439.68c0.813-0.946,1.699-1.82,2.4-2.88
		c-1.392-0.527-3.736-0.104-5.52-0.24C135.095,437.945,136.251,438.869,137.52,439.68z M168.48,448.32
		c5.667,0.481,15.61-0.431,22.56,0.239c-2.556-3.685-7.138-7.422-9.84-11.76c-3.737,0.793-9.35-0.155-13.2-0.24
		C168.298,440.748,168.695,444.828,168.48,448.32z M23.52,437.04c0.414,1.187,0.96,2.239,2.16,2.64
		c0.504-1.095,1.589-1.61,1.92-2.88C26.077,437.072,25.438,436.983,23.52,437.04z M50.64,437.04c2.899,3.421,5.922,6.718,7.92,11.04
		c1.179,0.164,1.883,0.415,3.36,0.479c0.65,0.029,1.804,0.468,1.92-0.239c-2.964-3.036-5.271-6.729-7.92-10.08
		c-0.201-0.279-0.316-0.644-0.24-1.2C53.7,436.909,51.709,436.844,50.64,437.04z M102.72,437.04
		c-3.005,4.355-6.541,8.179-9.84,12.24c1.698,0.098,2.773-0.428,4.56-0.24c3.511-4.01,6.896-8.144,10.32-12.24
		C106.212,437.227,104.39,437.141,102.72,437.04z M158.16,446.4c2.462-3.379,5.097-6.584,7.92-9.601
		c-1.521,0.137-2.457-0.088-4.08,0.24c-1.012,2.108-2.861,3.379-4.08,5.28c-1.996-1.685-3.854-3.505-5.52-5.521
		c-1.04,0-2.08,0-3.12,0C152.146,440.094,154.935,443.466,158.16,446.4z M154.8,437.28c0.884,0.876,1.687,1.833,2.88,2.399
		c0.562-1.119,1.881-1.479,2.16-2.88C158.138,436.938,156.256,436.896,154.8,437.28z M184.08,437.04c1.69,2.869,4.75,4.37,6.24,7.44
		c1.296,1.104,2.652,2.146,3.359,3.84c2.307,0.066,3.193,0.144,5.28,0.239c-3.593-3.927-8.438-6.601-11.04-11.52
		C186.319,437.055,185.505,436.651,184.08,437.04z M271.92,437.28c-1.479,1.641-2.202,4.037-4.32,5.04
		c-2.702-1.535-4.326-5.61-7.92-4.801c0.039,1.321,1.059,1.662,1.92,2.16c1.965,2.676,4.729,4.552,6.96,6.96
		c1.912-3.468,5.262-6.439,6.96-9.359C273.814,437.268,273.486,437.154,271.92,437.28z M239.04,437.28
		c-3.376,3.903-7.388,7.172-11.04,10.8c1.584,0.848,3.959-0.584,5.52,0.24c0.313-0.887,1.717-1.142,0.961-2.4c0.399,0,0.8,0,1.199,0
		c1.802-1.922,4.173-4.066,5.521-6c0.776-1.114,1.937-1.329,1.92-2.4C242.235,436.965,240.323,437.437,239.04,437.28z
		 M246.96,437.28c-0.953,1.186-2.03,2.012-3.12,3.12c-2.214,2.25-4.702,4.718-6.72,6.72c-0.306,0.303-1.795,1.081-0.72,1.2
		c7.091,0.03,14.411-0.654,20.64,0.239c-0.686-3.819-0.151-7.441-0.48-11.04C253.133,437.254,251.054,437.388,246.96,437.28z
		 M267.84,439.44c0.625-0.496,1.088-1.153,1.2-2.16c-1.28,0-2.56,0-3.84,0C265.511,438.569,266.713,438.967,267.84,439.44z
		 M68.16,448.8c2.871-0.295,5.786,0.373,8.64-0.24c-3.644-2.516-5.767-6.553-9.12-9.359C68.289,441.951,67.534,446.066,68.16,448.8z
		 M201.36,448.08c2.387,0.062,6.37,0.396,8.64,0c-0.308-1.292-1.344-1.856-2.4-2.4c-1.77-2.47-4.095-4.385-6.479-6.239
		C201.464,442.559,201.731,445.556,201.36,448.08z M223.44,439.68c-0.308-0.013-0.333-0.308-0.721-0.239
		c-1.27,2.01-4.026,2.533-4.8,5.04c-0.307-0.014-0.332-0.308-0.72-0.24c-1.028,1.292-2.242,2.397-3.12,3.84
		c3.561,0.051,7.599-0.044,9.6-0.24C223.251,445.526,223.462,441.641,223.44,439.68z M88.56,440.88
		c-1.281,0.8-2.181,1.979-2.88,3.36c-1.215,0.26-1.524,1.638-2.16,2.399c-0.733,0.878-1.952,1.389-2.16,2.641
		c2.987-0.202,4.524-0.162,8.16-0.24c-0.078-3.129-0.094-5.757,0-8.88c-0.051-0.27-0.266-0.374-0.48-0.48
		C88.938,440.138,88.354,440.114,88.56,440.88z"/>
</g>
</svg>
