<?xml version="1.0" encoding="UTF-8" standalone="no"?>
<!-- Created with Inkscape (http://www.inkscape.org/) -->

<svg
   xmlns:dc="http://purl.org/dc/elements/1.1/"
   xmlns:cc="http://creativecommons.org/ns#"
   xmlns:rdf="http://www.w3.org/1999/02/22-rdf-syntax-ns#"
   xmlns:svg="http://www.w3.org/2000/svg"
   xmlns="http://www.w3.org/2000/svg"
   xmlns:sodipodi="http://sodipodi.sourceforge.net/DTD/sodipodi-0.dtd"
   xmlns:inkscape="http://www.inkscape.org/namespaces/inkscape"
   width="744.09448819"
   height="1052.3622047"
   id="svg2"
   version="1.1"
   inkscape:version="0.48.4 r9939"
   sodipodi:docname="CampaignSavta.svg"
   inkscape:export-filename="D:\work\shokolada_webSite_work\facebook\CampaignSavta.png"
   inkscape:export-xdpi="90"
   inkscape:export-ydpi="90">
  <defs
     id="defs4">
    <clipPath
       clipPathUnits="userSpaceOnUse"
       id="clipPath3152">
      <rect
         style="fill:#ffffff;fill-opacity:1;stroke:#b2b0b0;stroke-width:3;stroke-linecap:square;stroke-linejoin:round;stroke-miterlimit:4;stroke-opacity:1;stroke-dasharray:none;stroke-dashoffset:0"
         id="rect3154"
         width="269.20566"
         height="34.345188"
         x="252.03307"
         y="256.36197" />
    </clipPath>
  </defs>
  <sodipodi:namedview
     id="base"
     pagecolor="#ffffff"
     bordercolor="#666666"
     borderopacity="1.0"
     inkscape:pageopacity="0.63529412"
     inkscape:pageshadow="2"
     inkscape:zoom="0.98994949"
     inkscape:cx="375"
     inkscape:cy="440.90626"
     inkscape:document-units="px"
     inkscape:current-layer="layer1"
     showgrid="false"
     inkscape:window-width="1366"
     inkscape:window-height="706"
     inkscape:window-x="-8"
     inkscape:window-y="-8"
     inkscape:window-maximized="1" />
  <metadata
     id="metadata7">
    <rdf:RDF>
      <cc:Work
         rdf:about="">
        <dc:format>image/svg+xml</dc:format>
        <dc:type
           rdf:resource="http://purl.org/dc/dcmitype/StillImage" />
        <dc:title></dc:title>
      </cc:Work>
    </rdf:RDF>
  </metadata>
  <g
     inkscape:label="Layer 1"
     inkscape:groupmode="layer"
     id="layer1">
    <rect
       style="fill:#ffffff;fill-opacity:1;stroke:#b2b0b0;stroke-width:3;stroke-linecap:square;stroke-linejoin:round;stroke-miterlimit:4;stroke-opacity:1;stroke-dasharray:none;stroke-dashoffset:0"
       id="rect3361"
       width="715.18799"
       height="1026.3149"
       x="16.162441"
       y="28.006588"
       inkscape:export-xdpi="90"
       inkscape:export-ydpi="90" />
    <g
       id="g3003"
       transform="matrix(1.9681989,0,0,1.6933268,96.08446,137.99389)">
	<path
   id="path3005"
   d="m 250.08,2.4 c 0.16,0 0.32,0 0.479,0 0,0.16 0,0.32 0,0.48 -0.159,0 -0.319,0 -0.479,0 0,-0.16 0,-0.32 0,-0.48 z"
   style="fill-rule:evenodd"
   inkscape:connector-curvature="0" />

	<path
   id="path3007"
   d="m 1.68,58.56 c 0.7,-0.353 0.7,1.073 0,0.72 0,-0.24 0,-0.48 0,-0.72 z"
   style="fill-rule:evenodd"
   inkscape:connector-curvature="0" />

	<path
   id="path3009"
   d="m 45.12,437.28 c 0.512,-0.112 0.457,0.343 0.48,0.72 -0.194,-0.046 -0.239,-0.241 -0.48,-0.24 0,-0.16 0,-0.32 0,-0.48 z"
   style="fill-rule:evenodd"
   inkscape:connector-curvature="0" />

	<path
   id="path3011"
   d="m 2.16,284.4 c -0.204,0.044 -0.227,-0.094 -0.24,-0.24 -0.062,-1.032 0.542,0.067 0.48,0.479 0.499,-1.138 0.061,-2.366 0,-3.6 -0.147,-3.005 -0.468,-8.556 -0.24,-10.8 0.141,-1.389 0.033,-3.775 0,-5.76 -0.011,-0.646 -0.247,-1.303 -0.24,-1.921 0.007,-0.679 0.462,-1.227 0.48,-1.92 0.072,-2.79 -0.443,-5.73 -0.48,-8.64 -0.073,-5.808 0.391,-11.838 0.48,-17.76 0.088,-5.827 0.619,-11.629 0.48,-16.8 0.411,-5.711 0.017,-10.862 0,-16.32 -0.015,-4.903 -1.264,-9.554 -0.96,-14.4 0.061,-0.966 0.397,-1.937 0.48,-2.88 0.278,-3.17 -0.221,-6.472 0,-9.84 0.218,-3.327 0.674,-6.714 0.72,-10.08 0.058,-4.235 -0.497,-8.664 -0.48,-12.96 0.023,-5.734 0.361,-11.142 0.24,-16.8 -0.038,-1.769 -0.078,-3.492 0,-5.28 0.326,-7.485 -0.386,-13.923 0,-21.84 0.194,-3.975 -0.51,-8.123 0.24,-11.76 0.185,-0.897 0.487,-1.62 0.96,-2.4 0.416,-1.295 -1.529,-0.231 -1.2,-1.44 0.226,-1.925 0.326,-4.051 0.24,-6 C 3.025,83.27 2.417,79.093 2.4,76.078 2.392,74.723 2.889,73.358 2.88,72 2.872,70.63 2.453,69.31 2.4,67.92 2.293,65.121 2.81,62.211 2.64,59.28 2.571,58.095 1.993,56.869 1.92,55.68 1.706,52.183 2.257,48.448 2.4,44.64 2.916,30.858 2.679,16.203 2.4,3.36 11.242,3.531 19.533,3.818 29.28,3.12 39.072,2.418 49.498,3.345 60,3.36 c 25.505,0.038 49.027,0 72.48,0 7.819,0 15.76,0.306 23.52,0.48 17.149,0.385 33.492,-0.683 53.28,-0.24 3.267,0.073 6.515,0.341 10.08,0 0.373,-0.036 0.636,-0.477 0.72,-0.48 0.217,-0.009 0.43,0.48 0.479,0.48 1.246,-0.021 2.186,-0.135 3.36,-0.24 7.392,-0.661 15.664,-0.173 22.08,0 3.779,0.102 7.256,-0.302 10.8,-0.24 3.774,0.066 7.587,0.275 11.28,0.48 8.188,0.454 16.735,-1.272 23.76,0 0.599,2.997 0.223,6.415 0.48,8.88 1.086,10.392 -0.02,24.747 0.239,34.32 0.037,1.352 0.242,2.754 0.24,4.08 -0.005,4.135 -0.604,8.333 -0.479,12.48 0.037,1.236 0.464,2.573 0.479,3.84 0.016,1.249 -0.453,2.589 -0.479,3.84 -0.127,6.023 0.032,14.934 0,20.88 -0.019,3.312 0.253,6.36 0.239,9.36 -0.005,1.166 -0.232,2.42 -0.239,3.6 -0.015,2.354 0.417,4.75 0.479,7.2 0.084,3.271 -1.124,6.785 0,10.08 -1.14,7.112 0.036,14.397 0,21.84 -0.006,1.328 -0.458,2.728 -0.479,4.08 -0.025,1.51 0.3,2.982 0.239,4.56 -0.181,4.769 -0.245,9.852 -0.239,14.88 0.017,14.378 0.21,28.575 0.239,42.48 0.005,2.047 0.162,4.042 0.24,6 0.233,5.848 -0.187,10.824 -0.479,17.28 -0.132,2.893 0.168,5.892 0,8.88 -0.04,0.701 -0.234,1.186 -0.24,1.92 -0.021,2.382 0.347,4.221 0.24,6 -0.258,4.298 -1.161,8.507 0.479,12.72 -0.28,-0.069 -0.693,-1.361 -0.72,-0.24 0.303,1.816 -0.079,3.028 0.479,4.32 -0.938,4.625 -0.188,9.291 -0.239,13.68 -0.041,3.457 -0.412,6.908 -0.24,10.561 0.19,4.035 -0.239,8.021 0,11.76 0.14,2.187 -0.199,4.096 -0.24,6.24 -0.144,7.582 0.013,15.351 0,22.8 -0.004,2.456 0.17,4.95 0.24,7.44 0.159,5.647 -0.451,11.603 -0.24,17.52 0.197,5.533 0.72,11.2 0.48,16.8 -0.078,1.828 -0.555,3.026 -0.48,4.801 0.044,1.04 0.453,1.884 0.48,2.88 0.069,2.544 -0.511,5.226 -0.48,7.92 0.094,8.304 0,16.09 0,24.479 0,11.289 0.492,23.635 0,34.561 -0.571,1.108 -1.971,1.39 -2.64,2.399 -13.022,0.727 -30.165,0.187 -43.681,0.24 -7.375,0.029 -14.446,0.236 -20.64,-0.72 -2.771,1.074 -5.563,0.289 -8.399,0.24 -5.766,-0.1 -11.577,0.669 -17.28,0.72 -5.838,0.052 -12.379,-0.596 -19.92,-0.48 -3.872,0.06 -7.971,-0.017 -11.28,-0.239 -10.669,-0.721 -21.958,-0.098 -34.56,0.479 -18.192,0.833 -40.217,0.734 -59.52,0.24 -3.838,-0.099 -7.68,-0.288 -11.52,-0.24 -3.924,0.049 -7.882,0.18 -11.76,0 -8.001,-0.371 -15.976,0.229 -24,-0.24 -8.214,-0.48 -16.54,-1.484 -24.96,-2.16 -0.075,-0.773 -0.654,-1.523 -0.72,-2.399 -0.068,-0.895 0.829,-2.498 0,-2.16 -0.565,-0.202 0.015,-1.237 0.24,-1.44 -0.209,-7.341 0.093,-14.762 0.48,-20.88 0.046,-0.73 0.233,-1.475 0.24,-2.16 0.017,-1.74 -0.676,-3.539 -0.72,-5.279 -0.011,-0.442 0.459,-0.788 0.48,-1.2 0.017,-0.349 -0.474,-0.777 -0.48,-1.2 -0.055,-3.999 1.073,-9.24 0.72,-13.439 -0.107,-1.279 -0.902,-2.55 -0.96,-3.841 -0.082,-1.821 0.827,-3.738 0.96,-5.52 0.127,-1.695 -0.085,-3.345 0,-5.04 0.207,-4.127 0.148,-9.248 0.24,-14.64 0.007,-0.431 0.479,-0.862 0.48,-0.96 0.003,-0.353 -0.508,-0.573 -0.48,-0.96 0.055,-0.763 0.429,-1.388 0.48,-2.16 0.238,-3.621 -0.795,-8.858 0,-13.2 -0.575,-3.077 -0.556,-6.201 -0.72,-9.36 -0.255,-4.9 0.211,-9.883 0.48,-14.64 0.213,-3.772 -0.703,-10.155 0,-14.16 0.368,-1.545 -0.696,-0.167 -0.72,-1.2 1.607,-1.683 0.499,-4.721 0.48,-7.68 -0.01,-1.551 0.259,-3.235 0.24,-4.8 -0.053,-4.344 0.031,-9.376 0,-15.12 0.07,-0.391 -0.225,-0.416 -0.238,-0.723 z M 39.84,13.2 c 0.873,1.085 1.337,2.474 2.64,3.12 4.024,-0.638 9.674,-0.646 13.92,-0.24 -0.459,-1.381 -0.086,-3.593 -0.96,-4.56 0.632,0.072 0.788,-0.333 0.72,-0.96 -0.417,-1.958 0.396,-3.206 -0.48,-5.04 -7.938,0 -15.88,0.322 -22.8,-0.48 2.015,2.99 4.73,5.388 6.96,8.16 z M 85.2,5.28 c -1.269,0.324 -2.773,-0.907 -3.36,0.24 2.895,3.105 5.557,6.443 8.4,9.6 3.407,-3.232 6.982,-6.298 10.32,-9.6 C 94.302,4.302 93.849,8.889 90.48,10.56 88.059,9.461 87.009,6.991 85.2,5.28 z M 253.68,5.04 c -1.068,0.518 -2.663,0.141 -3.12,0.72 4.429,3.252 8.106,7.254 12.24,10.8 1.69,-0.15 4.069,0.389 5.04,-0.48 -5.032,-3.367 -9.297,-7.503 -14.16,-11.04 z M 30.24,5.28 c -0.929,0.512 -2.36,-0.478 -3.12,0.479 3.197,3.204 6.208,6.593 9.12,10.08 0.942,-0.052 2.348,0.678 3.12,0 C 36.229,12.41 33.342,8.738 30.24,5.28 z m 40.8,0.24 c -1.776,0.176 -2.932,-0.269 -4.56,-0.24 0.276,3.158 4.054,3.125 4.56,0.24 z m 2.88,0 C 72.454,7.654 71.266,10.066 68.4,10.8 65.588,8.891 64.21,4.271 58.8,5.76 c 2.015,2.065 4.518,3.643 6,6.24 1.78,0.246 2.395,3.851 3.84,3.84 0.141,-10e-4 1.958,-1.787 2.64,-2.4 0.999,-0.898 3.092,-2.468 2.64,-3.36 0.355,0.278 0.605,0.278 0.96,0 0.983,-2.058 3.164,-2.917 4.32,-4.8 -2.099,-0.027 -2.813,0.353 -5.28,0.24 z m 14.4,0 c 0.207,1.233 1.542,1.338 1.92,2.4 1.443,-0.477 2.026,-1.813 3.12,-2.64 -1.723,0.037 -3.663,-0.143 -5.04,0.24 z m 30.96,0.72 c 3.104,3.216 6.859,5.781 9.12,9.84 1.833,-0.357 4.026,1.092 5.04,0 -2.864,-1.806 -6.278,-5.187 -8.88,-7.68 -1.852,-1.775 -2.468,-3.8 -5.52,-3.12 -0.018,0.418 0.054,0.746 0.24,0.96 z m 71.76,0 c 2.692,2.094 4.947,4.746 7.2,6.96 0.76,0.747 1.635,1.913 2.88,1.92 2.487,-3.433 6.323,-5.517 8.399,-9.36 -5.089,-1.315 -5.761,3.611 -9.119,4.8 -3.229,-1.731 -4.546,-5.375 -9.601,-5.28 -0.053,0.454 0.271,0.53 0.241,0.96 z M 225.6,5.52 c -0.237,0.875 -1.288,1.064 -1.92,1.92 -0.141,0.191 -0.064,0.775 -0.239,0.96 -0.171,0.18 -0.779,0.073 -0.96,0.24 -0.942,0.867 -0.997,1.674 -1.921,1.68 -1.732,0.011 -3.535,-3.673 -4.319,-4.56 -1.2,0 -2.4,0 -3.601,0 1.606,3.194 4.369,5.231 6.48,7.92 0.443,0.596 0.726,1.354 1.439,1.68 0.261,-0.747 1.161,-0.854 0.96,-1.44 3.184,-2.417 5.572,-5.627 8.16,-8.64 -1.625,0.169 -2.982,0.266 -4.079,0.24 z M 102.72,5.76 c -0.184,3.459 0.69,6.886 0,10.08 7.33,0.069 14.777,0.333 23.04,0.24 -2.191,-3.569 -7.024,-6.575 -9.6,-10.56 -5.112,-0.037 -8.856,0.028 -13.44,0.24 z M 176.64,6 c -2.132,2.929 -4.989,5.13 -7.439,7.44 -1.06,0.999 -2.249,1.928 -3.12,3.12 8.888,0.132 13.883,-1.097 22.32,-0.24 -0.219,-3.158 0.763,-5.395 -0.48,-7.92 0.424,-0.636 0.9,-2.162 0.48,-2.88 C 184.289,6.315 180.765,5.424 176.64,6 z m 24,2.4 c 1.212,-0.628 2.125,-1.555 2.641,-2.88 -2.296,0.315 -4.021,-0.264 -6,0.24 1.223,0.776 2.06,1.939 3.359,2.64 z m 18,-2.64 c -0.132,0.849 1.162,2.143 2.4,2.4 0.677,-1.003 1.787,-1.573 2.4,-2.64 -2.143,0.065 -2.662,0.274 -4.8,0.24 z m 13.44,11.04 c 8.929,0.028 17.721,-0.728 28.08,-0.24 -3.873,-3.887 -8.434,-7.087 -12.24,-11.04 -2.338,0.714 -5.283,-0.596 -7.2,0.72 0.072,-0.633 -0.332,-0.788 -0.96,-0.72 -3.195,0.05 -4.964,0.05 -8.16,0 0.55,3.586 0.548,6.957 0.48,11.28 z M 170.16,6 c -2.938,3.861 -6.893,6.708 -9.84,10.56 0.96,0 1.92,0 2.88,0 3.475,-3.565 7.254,-6.826 10.56,-10.56 -1.128,-0.511 -1.848,0.114 -3.6,0 z M 4.56,15.6 c 2.792,0.012 7.588,-0.925 10.08,0.72 C 14.363,14.607 12.569,14.192 11.52,13.2 9.226,11.031 7.426,8.321 4.8,6.48 4.747,6.293 4.599,6.201 4.32,6.24 4.956,9.208 4.231,12.784 4.56,15.6 z m 276.48,0.96 c 3.436,-0.166 6.135,-0.73 9.36,-0.24 -0.363,-3.205 -0.457,-6.706 -0.721,-8.88 -3.074,2.846 -5.915,5.924 -8.639,9.12 z M 18,15.6 c 2.607,0.078 3.913,0.126 6.48,0 C 24.455,12.9 24.063,10.414 24,8.4 23.947,8.213 23.799,8.121 23.52,8.16 22.457,11.417 19.146,12.426 18,15.6 z m 125.52,-1.2 c -1.923,-1.971 -3.898,-4.005 -5.76,-5.76 -0.05,-0.29 -0.266,-0.148 -0.48,0 0.107,2.69 -0.168,5.652 0,7.68 2.484,-0.168 5.265,-0.451 7.68,0 -0.016,-0.704 -0.89,-1.357 -1.44,-1.92 z M 270,16.56 c 2.019,-0.141 4.614,0.294 6.24,-0.24 -0.516,-1.722 -2.288,-2.407 -3.36,-3.6 -0.45,-0.501 -0.572,-1.449 -0.96,-1.92 -0.28,-0.34 -0.92,-0.42 -1.2,-0.72 -0.602,-0.643 -0.659,-1.632 -1.439,-1.68 0.257,3.227 0.767,4.87 0.719,8.16 z M 149.28,16.08 c 3.026,0.497 4.816,-0.374 8.16,0.48 -0.095,-1.696 -0.396,-5.182 -0.96,-7.2 -0.054,-0.187 -0.201,-0.279 -0.48,-0.24 -2.057,2.503 -4.276,4.843 -6.72,6.96 z M 17.04,18 c -0.606,0.881 -0.433,3.503 -0.48,5.76 -0.049,2.349 0.023,5.056 0,7.2 -0.154,14.444 -0.598,26.965 0,40.56 0.091,2.079 0.253,4.202 0.24,6.24 -0.064,9.747 0.153,20.282 0.24,30.96 0.016,1.985 0.155,3.891 0,5.76 -0.51,6.158 -0.923,12.727 -0.72,19.2 0.728,23.168 -0.025,46.247 0,68.88 0.01,9.142 0.594,18.071 0.48,26.88 -0.219,16.965 -0.46,34.135 -0.72,51.119 -0.068,4.433 0.288,8.958 0.24,13.44 -0.047,4.452 0.31,8.82 0.24,13.2 -0.134,8.455 -1.417,16.901 -0.96,24.96 0.454,8.006 0.434,16.609 0.48,25.2 0.011,2.121 -0.273,4.364 -0.24,6.479 0.033,2.113 0.465,4.175 0.48,6.24 0.111,15.532 -0.305,36.48 0.24,51.36 0.157,4.291 0.633,8.676 0,12.96 8.759,1.142 17.428,0.602 25.44,0.479 3.639,-0.056 9.211,0.132 13.2,0 0.59,-0.02 1.073,0.223 1.68,0.24 7.63,0.215 19.714,-0.384 27.6,-0.24 1.39,0.025 2.84,0.185 4.32,0.24 12.499,0.468 24.439,-0.61 34.8,-0.48 8.495,0.107 16.978,0.633 24.96,0.24 5.119,-0.251 10.408,0.392 15.84,0.24 2.891,-0.081 5.805,-0.307 8.64,-0.24 2.651,0.062 5.159,0.231 7.68,0.24 9.33,0.03 18.574,-0.177 26.4,0 2.632,0.06 5.327,0.421 7.92,0.479 5.055,0.116 10.103,-0.332 15.12,0 5.286,0.351 10.393,-0.19 15.6,-0.239 10.595,-0.101 21.302,1.036 31.681,-0.24 -0.749,-2.872 -0.48,-5.848 -0.48,-8.88 0,-3.062 -0.231,-6.247 -0.24,-9.36 -0.017,-6.104 -0.011,-12.233 0,-18.479 0.012,-6.452 0.753,-12.757 0.721,-19.2 -0.032,-6.227 0.031,-12.486 0,-18.72 -0.066,-12.966 -0.353,-26.6 0,-39.601 0.258,-9.539 -0.448,-19.07 -0.48,-28.08 -0.011,-2.99 -0.189,-6.082 0.72,-8.88 -0.9,-0.078 -0.428,-1.23 -0.479,-1.68 -0.515,-4.425 -0.07,-9.265 0,-13.2 0.238,-13.305 0.537,-29.171 0.479,-43.44 -0.022,-5.638 0.662,-10.037 0.48,-17.04 -0.237,-9.109 -0.248,-17.897 -0.48,-26.88 -0.266,-10.285 0.016,-21.938 -0.479,-31.92 -0.509,-10.239 0.325,-20.857 0.24,-31.68 -0.214,-27.157 -1.327,-55.496 -0.24,-83.28 0.218,-5.577 1.05,-11.069 0,-16.56 -11.298,0.547 -22.115,-0.176 -32.88,0.24 -16.583,0.641 -32.505,-0.229 -49.44,0 -2.542,0.034 -4.938,-0.378 -7.439,-0.48 -2.792,-0.113 -5.604,0.054 -8.4,0.24 -10.393,0.691 -20.78,0.214 -31.68,0.24 -5.356,0.012 -10.686,0 -16.08,0 -5.501,0 -11.082,0.185 -16.56,0 -32.28,-1.091 -64.112,0.86 -97.2,-0.96 C 17.395,16.834 17.165,17.907 17.04,18 z M 4.56,23.52 c 3.595,2.964 6.748,6.372 10.08,9.6 0.077,-1.523 -0.203,-3.403 0.24,-4.56 -3.502,-3.058 -6.395,-6.726 -10.32,-9.36 -0.281,1.264 0.417,2.727 0,4.32 z m 275.04,0.72 c 3.477,3.964 7.024,7.856 10.801,11.52 0,-1.6 0,-3.2 0,-4.8 -3.911,-3.289 -6.96,-7.441 -10.32,-11.28 -0.24,0 -0.48,0 -0.72,0 -0.507,1.499 0.61,2.503 0.239,4.56 z M 3.84,42.96 c -0.026,2.289 0.24,4.446 0.24,6 3.44,0 6.88,0 10.32,0 1.036,-4.119 -0.376,-7.884 0.48,-12.72 -1.701,-0.539 -1.758,-2.722 -3.84,-2.88 0.646,-0.624 -0.293,-0.724 -0.24,-1.44 -2.601,-1.559 -4.391,-3.928 -6.48,-6 -0.018,4.42 -0.412,11.115 -0.48,17.04 z m 275.04,5.28 c 3.042,-0.776 8.822,-0.451 11.521,-0.24 -0.176,-3.96 -0.494,-5.785 -0.24,-10.08 -2.087,-1.273 -3.519,-3.201 -5.28,-4.8 -1.574,-1.866 -3.446,-3.434 -4.8,-5.52 -0.283,-0.035 -0.544,-0.427 -0.72,0 0.368,5.098 -1.18,14.914 -0.481,20.64 z m 11.04,2.64 c -0.572,1.011 -1.606,1.232 -2.4,1.92 -1.101,0.955 -1.809,2.383 -2.88,3.36 -1.534,1.401 -3.761,2.155 -4.319,4.32 2.996,2.51 6.272,6.091 8.88,8.88 0.154,0.166 0.753,1.579 1.2,0.72 0.165,-1.731 -0.531,-2.895 0,-4.32 -1.219,-2.38 -6.925,-4.007 -4.561,-7.2 0.992,-1.339 3.475,-2.458 4.561,-3.6 -0.146,-1.505 0.182,-2.539 0.239,-3.84 -0.307,-0.013 -0.332,-0.308 -0.72,-0.24 z M 4.08,54.72 c 0.905,0.579 1.775,1.458 2.64,2.4 0.776,0.846 2.115,2.004 2.16,2.88 0.149,2.892 -5.862,3.737 -4.56,8.4 3.161,-2.839 6.727,-5.273 9.6,-8.4 -2.946,-1.498 -5.056,-4.963 -7.68,-6 -0.374,-1.066 -1.1,-1.78 -2.16,-2.16 0,0.96 0,1.92 0,2.88 z m 0.48,8.4 C 5.231,62.031 6.303,61.343 6.96,60.24 6.139,59.221 5.348,58.172 4.08,57.6 c 0.596,1.438 -0.066,3.465 0.48,5.52 z m 282.72,-2.88 c 1.106,0.653 1.372,2.147 2.88,2.4 0.171,-1.26 0.241,-3.021 0.24,-5.04 -1.453,0.467 -2.339,1.501 -3.12,2.64 z M 8.4,79.68 c -1.205,2.314 -4.216,2.824 -3.6,6.96 2.427,-1.253 3.901,-3.459 6,-5.04 0.615,-0.745 2.064,-0.656 2.4,-1.68 C 10.324,77.516 7.747,74.813 5.28,72 5.04,72 4.8,72 4.56,72 3.664,76.736 7.354,76.886 8.4,79.68 z m 272.64,0.96 c 0.659,0.541 1.728,1.682 2.64,1.2 -0.208,0.929 0.587,0.854 0.721,1.44 2.498,1.102 3.762,3.438 6,4.8 0.435,-4.275 -3.053,-4.628 -4.08,-7.44 0.73,-1.75 2.554,-2.406 3.84,-3.6 -0.385,-1.417 0.679,-3.702 -0.24,-4.08 -2.245,3.395 -6.129,4.967 -8.881,7.68 z M 10.8,75.6 c 0.385,-0.668 -1.036,-0.664 -0.96,-0.24 0.49,0.419 0.471,-0.179 0.96,0.24 z m -5.76,6 C 5.402,80.842 6.253,80.573 6.24,79.44 5.755,78.885 5.442,78.158 4.56,78 c -0.01,1.37 0.092,2.628 0.48,3.6 z m 284.88,-2.16 c -0.308,0.652 -1.229,0.691 -1.439,1.44 0.605,0.674 1.203,1.357 1.92,1.92 -0.267,-1.014 0.564,-3.125 -0.481,-3.36 z m -283.2,12 C 6.313,90.684 5.604,91.141 4.8,91.2 c 0.077,1.711 0.504,3.079 0.48,4.56 -0.034,2.11 -0.157,2.124 0.96,3.6 0.457,0.604 0.983,1.457 1.2,1.68 0.513,0.528 1.334,0.68 1.92,1.2 0.977,0.867 1.68,2.148 2.64,3.12 1.086,1.1 2.133,2.117 3.12,2.88 -0.478,-6.949 0.095,-12.012 -0.24,-17.28 -1.714,-0.534 -6.537,-0.614 -8.16,0.48 z m 272.4,-0.24 c 0.127,6.024 -0.178,12.282 0.24,17.04 1.132,-0.471 2.895,-2.383 3.84,-3.84 1.238,-0.731 2.299,-2.208 3.6,-3.6 0.903,-0.967 3.032,-2.761 3.36,-3.84 0.573,-1.889 -0.1,-3.972 -0.24,-6.24 -3.83,0.2 -8.269,-0.442 -10.8,0.48 z M 5.04,104.88 c 3.222,3.898 6.467,7.772 10.08,11.28 0,-1.44 0,-2.88 0,-4.32 -2.996,-4.284 -6.384,-8.176 -10.32,-11.52 -0.146,1.745 0.184,3.016 0.24,4.56 z m 274.56,7.2 c -0.412,0.843 0.25,2.39 0,3.84 3.99,-3.209 6.551,-7.849 10.561,-11.04 -0.127,-1.327 0.674,-2.735 0,-3.84 -0.053,-0.187 -0.201,-0.279 -0.48,-0.24 -3.107,4.013 -6.849,7.392 -10.081,11.28 z m 0,6.96 c 0.255,2.534 0.218,4.379 0,7.2 3.324,-2.276 6.392,-4.809 8.881,-7.92 -2.502,-0.204 -6.938,1.041 -8.881,0.72 z M 6,119.28 c 0.433,1.16 1.571,1.857 2.4,2.64 0.864,0.815 1.779,1.583 2.64,2.4 0.72,1.6 1.892,2.748 3.36,3.6 -0.185,-3.225 0.315,-5.764 0.24,-8.88 -2.771,0.189 -5.599,0.32 -8.64,0.24 z m 273.36,19.2 c 1.966,-0.833 5.248,-0.352 7.92,-0.48 -1.962,-2.758 -5.224,-6.296 -7.681,-9.36 -0.031,1.814 -0.923,6.683 -0.239,9.84 z M 9.12,138 c -0.514,0.517 -1.301,1.115 -1.44,1.92 1.77,0.23 4.803,-0.084 6.96,-0.24 -0.255,-2.065 -0.283,-4.357 -0.24,-6.72 -0.053,-0.187 -0.201,-0.279 -0.48,-0.24 -1.359,2.063 -3.253,3.724 -4.8,5.28 z m 270,7.44 c 4.042,2.918 7.214,6.706 11.04,9.84 0.585,-2.913 -0.963,-3.856 -2.641,-5.52 -2.906,-2.883 -5.94,-5.979 -8.64,-8.16 0.174,1.188 0.331,2.39 0.241,3.84 z M 4.56,155.76 c -0.167,1.526 0.406,2.314 0.24,3.84 2.099,-2.135 3.921,-4.189 6,-6.24 1.249,-1.232 2.593,-2.366 3.84,-3.6 0,-2 0,-4 0,-6 -0.053,-0.187 -0.201,-0.279 -0.48,-0.24 -2.97,4.31 -6.387,8.173 -9.6,12.24 z m 275.04,-7.44 c -0.051,-0.29 -0.266,-0.147 -0.479,0 0.423,7.674 -0.227,16.723 0.479,25.92 3.257,0.17 8.139,-0.458 10.561,-0.24 -0.822,-2.789 0.427,-6.177 -0.72,-8.64 0.86,-0.603 0.351,-2.853 0.479,-4.8 0.053,-0.799 0.31,-1.517 0.24,-2.16 -3.504,-3.376 -7.1,-6.659 -10.56,-10.08 z m -265.44,5.04 c -3.536,3.024 -6.752,6.368 -9.12,10.56 0.527,4.199 -0.01,8.026 -0.48,12.72 4.213,0.339 6.33,-0.079 9.84,-0.24 0.37,-7.541 0.108,-15.234 0.24,-23.04 -0.16,0 -0.32,0 -0.48,0 z m 267.36,31.68 c 2.881,2.64 5.613,5.427 8.641,7.92 0,-1.04 0,-2.08 0,-3.12 -1.297,-1.854 -4.46,-2.669 -4.08,-5.04 0.27,-1.687 2.785,-1.943 3.84,-3.36 -0.409,-1.476 0.806,-3.25 -0.24,-3.84 -2.439,2.762 -5.803,4.598 -8.161,7.44 z M 4.32,181.68 c 0.851,2.017 4.104,2.682 4.08,4.8 -0.027,2.481 -5.222,3.126 -4.32,7.2 1.805,-0.706 2.836,-2.443 4.32,-3.6 1.455,-1.135 3.463,-1.787 4.32,-3.6 -2.812,-2.228 -5.021,-5.06 -8.16,-6.96 0.074,0.874 -0.038,1.562 -0.24,2.16 z m 283.92,3.6 c 0.311,0.819 1.211,2.026 1.92,1.68 -0.049,-1.231 0.213,-2.773 -0.48,-3.36 -0.602,0.439 -0.834,1.246 -1.44,1.68 z m -284.4,3.6 c 1.863,0.023 1.496,-2.185 2.4,-3.12 -0.885,-0.235 -1.063,-1.177 -1.92,-1.44 -0.372,1.378 -0.339,3.653 -0.48,4.56 z m 285.84,7.92 c -0.189,0.17 -0.077,0.512 -0.239,0.72 -2.071,2.659 -4.943,4.569 -6.721,7.44 2.291,2.909 5.071,5.329 7.44,8.16 -0.188,-1.547 0.356,-2.363 0.24,-3.84 -1.215,-1.585 -3.331,-2.269 -3.841,-4.56 1.101,-1.38 1.894,-3.067 3.601,-3.84 0.371,-1.43 0.083,-2.94 0.24,-4.08 -0.24,0 -0.48,0 -0.72,0 z m -280.8,8.16 c 0.098,1.82 -3.401,2.974 -4.08,5.04 -0.225,0.686 0.138,1.825 0.24,2.88 1.286,-0.147 1.466,-1.422 2.16,-2.16 1.91,-2.032 4.77,-3.312 6,-5.76 -3.165,-2.195 -5.403,-5.317 -8.64,-7.44 -1.513,5.092 4.185,4.909 4.32,7.44 z m -4.08,2.4 c 0.998,-0.443 1.641,-1.239 1.92,-2.4 -0.556,-0.564 -0.787,-1.453 -1.92,-1.44 0,1.28 0,2.56 0,3.84 z m 284.88,-3.84 c -0.248,0.632 -0.951,0.808 -1.199,1.44 0.822,0.217 0.485,1.594 1.68,1.44 -0.252,-0.869 0.543,-2.784 -0.481,-2.88 z M 280.56,216 c -0.329,7.609 -1.169,15.361 -0.479,22.32 1.99,-1.609 3.463,-3.736 5.76,-5.04 0.956,-1.685 2.188,-3.093 4.08,-3.84 0.062,-5.834 -0.128,-9.099 0.24,-13.681 -3.003,0.347 -6.436,0.76 -9.601,0.241 z m -268.8,0 c -2.187,-0.099 -4.529,0.554 -6.96,0.72 0.03,3.821 -0.042,8.716 0,11.76 3.785,2.615 6.246,6.554 10.08,9.12 -0.186,-8.061 0.586,-14.014 -0.48,-21.6 -0.668,0.893 -1.593,0.047 -2.64,0 z m -7.44,18.96 c 3.223,1.633 5.321,4.549 7.68,6.72 0.765,0.704 1.693,1.5 2.64,1.92 -0.359,-1.374 0.027,-2.033 0,-3.6 -3.962,-2.358 -6.105,-6.535 -10.08,-8.88 -0.463,1.429 -0.294,2.021 -0.24,3.84 z m 275.52,7.2 c -0.006,1.514 0.095,3.135 -0.24,4.32 3.939,-2.087 6.474,-6.772 10.08,-8.4 0.103,-2.283 -0.107,-3.437 0.24,-5.521 -0.053,-0.187 -0.201,-0.278 -0.479,-0.239 -2.82,3.66 -6.772,6.189 -9.601,9.84 z M 6,247.2 c 1.689,2.723 4.252,5.42 6.24,7.68 0.646,0.735 1.417,1.97 2.4,1.92 0.053,-3.564 -0.304,-6.586 -0.24,-9.6 -2.661,-0.605 -5.093,-0.198 -8.4,0 z m 273.84,4.32 c -0.01,1.099 0.014,2.505 0,3.841 -0.014,1.432 -0.315,3.177 0.24,3.359 2.665,-2.295 5.225,-4.695 7.439,-7.439 -2.794,-0.449 -5.155,0.561 -7.679,0.239 z M 6.48,268.56 c 2.729,-0.145 5.162,0.357 7.68,0 0.294,-0.744 0.397,-2.408 -0.24,-3.359 0.805,-0.488 0.708,-4.439 0.24,-4.561 -2.411,2.789 -5.34,5.06 -7.68,7.92 z m 273.12,1.2 c 3.149,0.16 4.024,0.038 7.2,-0.24 -2.141,-2.419 -4.617,-4.502 -7.2,-6.479 0.037,1.474 -0.118,5.163 0,6.719 z M 6.24,280.32 c -0.83,0.13 -0.9,1.02 -1.68,1.199 0.14,1.426 -0.203,3.629 0,4.32 1.306,-1.4 2.925,-3.227 4.8,-5.04 1.266,-1.224 4.598,-3.672 5.04,-5.04 0.035,-0.106 0.093,-4.027 -0.48,-3.6 -2.288,2.993 -5.329,5.233 -7.68,8.161 z m 272.64,-3.12 c 3.563,3.316 6.422,7.338 10.08,10.56 0.267,-1.438 -0.138,-2.863 0,-4.8 -1.232,-1.439 -2.754,-2.842 -4.32,-4.32 -1.536,-1.451 -3.698,-2.743 -4.56,-4.08 -0.312,-0.482 0.255,-1.034 -0.48,-0.96 -0.159,0 -0.319,0 -0.479,0 -0.111,1.17 0.25,2.811 -0.241,3.6 z M 5.76,288.72 c -0.164,0.477 -1.43,-0.149 -1.2,0.721 -0.163,4.938 0.412,8.913 0,12.96 3.339,0.021 6.321,0.398 9.84,0.239 -0.394,-8.079 -0.822,-16.103 0,-23.04 -0.317,-0.003 -0.219,-0.42 -0.48,-0.479 -2.567,3.352 -6.551,5.288 -8.16,9.599 z m 273.84,11.04 c 0.038,0.807 -0.8,1.767 0.24,2.4 -0.397,0.695 0.568,-0.468 1.2,-0.24 1.925,0.084 5.692,0.15 7.92,-0.24 -0.33,-4.105 -0.286,-7.73 0,-10.8 -3.493,-3.307 -6.221,-7.379 -9.84,-10.56 -0.066,6.955 0.199,13.491 0.48,19.44 z m 3.12,10.8 c -0.425,0.318 -2.673,1.155 -2.64,1.921 0.02,0.442 1.416,0.744 1.92,1.199 1.825,1.649 4.933,5.595 6.48,6.96 0.305,-0.974 0.443,-2.115 0.479,-3.359 -1.31,-1.651 -3.506,-2.414 -4.56,-4.32 1.204,-1.756 2.669,-3.251 4.56,-4.32 -0.259,-0.94 0.556,-2.955 -0.479,-3.12 -1.71,1.287 -4.209,3.879 -5.76,5.039 z M 8.4,312.72 c -1.036,2.755 -5.028,3.73 -4.08,7.681 2.803,-2.398 5.009,-5.392 7.92,-7.681 -3.118,-1.762 -5.325,-4.435 -7.68,-6.96 -0.974,3.76 3.082,4.174 3.84,6.96 z m 271.68,-6 c -0.033,-0.446 -0.158,-0.802 -0.48,-0.96 0.054,0.426 -0.242,1.202 0.48,0.96 z M 4.8,315.12 c 0.529,-0.751 0.752,-1.808 1.68,-2.16 -0.483,-0.957 -0.863,-2.017 -2.16,-2.16 0.487,1.628 -0.604,2.91 0.48,4.32 z m 282,-1.92 c 1.069,0.051 0.991,1.249 2.16,1.2 0.042,-1.492 -0.27,-1.856 0,-3.12 -1.207,0.153 -1.734,0.986 -2.16,1.92 z m -278.4,18 c -1.4,1.56 -2.383,3.536 -4.32,4.56 0,0.88 0,1.76 0,2.641 1.602,-0.725 2.815,-2.011 4.08,-3.12 1.315,-1.153 2.489,-2.466 4.08,-3.36 -2.215,-2.905 -4.951,-5.289 -7.92,-7.439 -0.442,4.04 3.09,4.108 4.08,6.718 z m 272.88,1.68 c 0.667,1.786 2.36,2.82 3.6,4.08 1.308,1.329 2.418,2.864 4.08,3.84 0.784,-4.544 -2.727,-4.793 -4.32,-6.96 0.243,-2.234 3.609,-3.687 4.08,-5.76 0.104,-0.454 0.348,-2.151 -0.479,-2.64 -2.219,2.582 -4.212,5.389 -6.961,7.44 z m -277.2,1.2 c 1.214,-0.466 1.651,-1.709 2.16,-2.88 -0.569,-0.632 -0.954,-1.447 -1.92,-1.681 0.358,1.192 -0.649,3.393 -0.24,4.561 z m 282.48,-0.72 c 1.051,0.149 1.173,1.228 2.16,1.439 0.42,-0.499 -0.262,-2.46 0.24,-3.84 -1.348,0.253 -1.998,1.203 -2.4,2.401 z m -282,18 c 0.989,0.771 1.622,1.897 2.88,2.399 1.055,1.89 3.459,3.729 5.04,5.04 0.465,0.386 1.06,1.947 1.68,0.96 -0.082,-4.708 -0.567,-11.599 -0.24,-17.279 -2.88,-0.643 -6.927,0.528 -9.84,-0.48 0.143,3.605 0.423,6.046 0.48,9.36 z m 275.28,-7.44 c -0.02,5.831 0.1,14.17 -0.24,18.72 2.311,-3.13 5.077,-5.803 7.44,-8.88 0.649,-0.31 1.483,-0.437 1.68,-1.2 0.04,-1.882 -0.052,-4.351 0,-6.239 0.026,-0.951 0.862,-2.197 -0.239,-2.641 -2.6,0.596 -6.626,1.068 -8.641,0.24 z M 4.56,358.56 c 3.368,2.872 6.029,6.451 9.6,9.12 0.006,-1.446 -0.409,-2.471 -0.24,-4.08 -2.947,-3.132 -6.317,-5.842 -9.12,-9.119 -0.505,0.934 -0.12,2.759 -0.24,4.079 z m 284.16,2.16 c 0.361,-1.491 0.209,-3.026 0,-4.56 -0.053,-0.188 -0.201,-0.279 -0.479,-0.24 -2.498,2.622 -4.732,5.508 -7.2,8.16 -0.313,0.567 -1.523,0.236 -1.44,1.2 -0.095,0.742 0.068,3.287 0,4.8 3.079,-3.08 5.73,-6.589 9.119,-9.36 z m -283.2,9.6 c 2.735,3.185 5.857,5.982 8.88,8.88 0.189,-3.499 -0.076,-6.583 -0.24,-9.12 -3.092,0.297 -5.09,0.03 -8.64,0.24 z m 273.84,3.12 c 0.427,3.649 0.575,5.289 0.239,9.359 1.957,-0.822 2.46,-2.987 3.601,-4.56 1.267,-1.747 3.227,-2.964 4.319,-4.8 -2.728,-0.08 -4.831,0.226 -8.159,10e-4 z M 13.92,383.76 c -2.316,3.124 -5.74,5.14 -8.16,8.16 3.249,-0.015 6.327,-0.518 8.64,-0.24 0.025,-3.159 -0.019,-5.7 0.24,-7.92 -0.24,0 -0.48,0 -0.72,0 z m 265.44,10.56 c 1.708,1.413 5.39,0.427 7.92,0.479 -2.239,-2.641 -5.183,-4.577 -7.44,-7.2 -0.625,1.776 0.121,4.922 -0.48,6.721 z M 1.68,393.36 c -0.103,1.143 0.285,1.794 0.72,2.399 1.763,0.031 2.538,-0.37 2.64,-2.399 -1.471,-0.068 -2.49,-0.425 -3.36,0 z m 2.4,11.04 c 0.12,1.319 -0.265,3.145 0.24,4.08 2.438,-2.229 4.839,-4.081 7.2,-6.48 0.974,-0.989 2.545,-2.357 2.88,-3.36 0.398,-1.192 -0.067,-2.641 0.24,-4.08 -0.053,-0.187 -0.201,-0.278 -0.48,-0.239 -3.238,3.481 -6.235,7.203 -10.08,10.079 z m 275.28,-0.96 c 0.802,0.237 1.117,0.962 1.92,1.199 0.004,0.717 0.624,0.816 0.72,1.44 2.023,0.949 2.942,2.831 4.32,4.32 0.443,0.479 1.005,0.76 1.439,1.199 0.294,0.298 0.526,1.47 1.2,0.96 0.18,-1.939 -0.286,-3.233 -0.24,-5.04 -3.05,-2.949 -6.253,-5.746 -9.359,-8.64 -0.209,1.535 -0.361,3.07 0,4.562 z m -274.08,8.4 c -0.315,0.245 -0.884,0.235 -1.2,0.48 0.063,2.803 -0.215,5.579 0.48,7.199 1.682,0.162 2.784,-0.255 3.6,-0.96 0.289,1.361 4.384,0.491 6.24,0.48 -0.744,-6.141 0.022,-10.967 0,-16.56 -0.053,-0.188 -0.201,-0.279 -0.48,-0.24 -2.239,3.841 -6.32,5.841 -8.64,9.601 z m 274.08,9.84 c 3.701,0.261 6.107,-0.662 9.6,0.24 -0.252,-1.559 -0.273,-3.801 -0.24,-6.24 -3.258,-3.062 -6.317,-6.322 -9.6,-9.359 0.674,5.061 -0.26,10.686 0.24,15.359 z M 12.96,421.2 c 0.601,0.04 0.751,-0.369 0.96,-0.72 -0.32,0 -0.64,0 -0.96,0 0,0.24 0,0.48 0,0.72 z m -8.88,6.24 c 0.45,0.749 1.077,1.323 1.2,2.399 1.197,0.507 1.443,1.98 2.16,2.88 0.699,0.877 2.102,1.278 2.16,2.641 -2.412,2.63 -6.983,4.103 -6,9.359 0.902,0.022 0.558,-1.202 1.2,-1.439 2.458,-1.223 4.32,-3.04 6,-5.04 1.062,-0.938 2.625,-1.376 3.12,-2.88 -2.374,-2.427 -3.907,-5.693 -6.72,-7.681 -0.815,-1.744 -1.749,-3.371 -3.12,-4.56 0.56,1.86 0.007,2.108 0,4.321 z m 283.68,-2.88 c -2.928,3.391 -6.145,8.527 -8.64,11.04 0.841,1.239 1.994,2.166 3.36,2.881 1.708,2.371 3.835,4.324 6.239,6 0.167,-0.836 0.098,-1.77 0.24,-3.12 -2.04,-2.12 -4.806,-3.515 -6,-6.48 1.662,-2.818 4.019,-4.941 6,-7.439 -0.808,-1.533 0.04,-1.521 0,-3.12 -0.418,0.018 -0.746,-0.054 -0.96,-0.24 -0.053,0.185 -0.006,0.472 -0.239,0.478 z m -2.64,10.56 c 1.352,0.808 2.614,1.706 3.84,2.64 0,-2.16 0,-4.319 0,-6.479 -1.843,0.716 -2.735,2.384 -3.84,3.839 z m -280.56,1.2 c 0.794,-0.486 1.883,-0.677 1.92,-1.92 -0.785,-0.975 -1.246,-2.274 -2.4,-2.881 0.033,1.838 -0.729,3.427 0.48,4.801 z m 105.84,0.48 c -3.271,4.249 -7.056,7.983 -10.08,12.48 6.739,-0.141 15.154,-0.34 24.24,-0.24 -0.042,-1.538 0.116,-3.085 0.24,-4.56 0.258,-3.066 -0.684,-5.912 0.24,-8.16 -5.089,-0.049 -9.676,0.404 -14.64,0.48 z m 21.6,0 c -1.284,0.536 -3.48,-0.988 -4.32,0 3.995,3.206 7.411,6.989 10.56,11.04 2.052,-4.428 5.738,-7.222 8.4,-11.04 -1.678,-0.257 -2.807,0.297 -4.32,-0.24 -0.285,0.755 -0.81,1.271 -0.96,2.16 -2.075,0.405 -1.818,3.143 -4.08,3.36 -2.051,-1.47 -3.532,-3.509 -5.28,-5.28 z m -107.52,9.6 c 1,-0.04 0.837,-1.243 1.44,-1.681 2.141,-1.516 4.043,-4.316 5.76,-6.239 0.432,-0.484 2.089,-1.146 1.2,-1.921 -0.241,0.955 -1.446,0.23 -2.16,0.24 -1.344,2.416 -3.312,4.208 -5.76,5.521 -2.844,-1.557 -2.485,-6.315 -7.44,-5.761 2.309,3.292 4.84,6.361 6.96,9.841 z m 11.76,-9.36 c -0.089,3.781 0.437,7.991 0.72,11.52 5.9,-0.826 13.566,-0.066 19.68,0 -2.649,-3.59 -5.259,-7.221 -8.16,-10.56 0.198,-0.679 -0.338,-0.622 -0.24,-1.2 -3.806,0.389 -7.946,-0.305 -12,0.24 z m 101.28,2.64 c 0.813,-0.946 1.699,-1.82 2.4,-2.88 -1.392,-0.527 -3.736,-0.104 -5.52,-0.24 0.695,1.385 1.851,2.309 3.12,3.12 z m 30.96,8.64 c 5.667,0.481 15.61,-0.431 22.56,0.239 -2.556,-3.685 -7.138,-7.422 -9.84,-11.76 -3.737,0.793 -9.35,-0.155 -13.2,-0.24 0.298,4.189 0.695,8.269 0.48,11.761 z M 23.52,437.04 c 0.414,1.187 0.96,2.239 2.16,2.64 0.504,-1.095 1.589,-1.61 1.92,-2.88 -1.523,0.272 -2.162,0.183 -4.08,0.24 z m 27.12,0 c 2.899,3.421 5.922,6.718 7.92,11.04 1.179,0.164 1.883,0.415 3.36,0.479 0.65,0.029 1.804,0.468 1.92,-0.239 -2.964,-3.036 -5.271,-6.729 -7.92,-10.08 -0.201,-0.279 -0.316,-0.644 -0.24,-1.2 -1.98,-0.131 -3.971,-0.196 -5.04,0 z m 52.08,0 c -3.005,4.355 -6.541,8.179 -9.84,12.24 1.698,0.098 2.773,-0.428 4.56,-0.24 3.511,-4.01 6.896,-8.144 10.32,-12.24 -1.548,0.427 -3.37,0.341 -5.04,0.24 z m 55.44,9.36 c 2.462,-3.379 5.097,-6.584 7.92,-9.601 -1.521,0.137 -2.457,-0.088 -4.08,0.24 -1.012,2.108 -2.861,3.379 -4.08,5.28 -1.996,-1.685 -3.854,-3.505 -5.52,-5.521 -1.04,0 -2.08,0 -3.12,0 2.866,3.296 5.655,6.668 8.88,9.602 z m -3.36,-9.12 c 0.884,0.876 1.687,1.833 2.88,2.399 0.562,-1.119 1.881,-1.479 2.16,-2.88 -1.702,0.139 -3.584,0.097 -5.04,0.481 z m 29.28,-0.24 c 1.69,2.869 4.75,4.37 6.24,7.44 1.296,1.104 2.652,2.146 3.359,3.84 2.307,0.066 3.193,0.144 5.28,0.239 -3.593,-3.927 -8.438,-6.601 -11.04,-11.52 -1.6,0.016 -2.414,-0.388 -3.839,0.001 z m 87.84,0.24 c -1.479,1.641 -2.202,4.037 -4.32,5.04 -2.702,-1.535 -4.326,-5.61 -7.92,-4.801 0.039,1.321 1.059,1.662 1.92,2.16 1.965,2.676 4.729,4.552 6.96,6.96 1.912,-3.468 5.262,-6.439 6.96,-9.359 -1.706,-0.012 -2.034,-0.126 -3.6,0 z m -32.88,0 c -3.376,3.903 -7.388,7.172 -11.04,10.8 1.584,0.848 3.959,-0.584 5.52,0.24 0.313,-0.887 1.717,-1.142 0.961,-2.4 0.399,0 0.8,0 1.199,0 1.802,-1.922 4.173,-4.066 5.521,-6 0.776,-1.114 1.937,-1.329 1.92,-2.4 -0.886,-0.555 -2.798,-0.083 -4.081,-0.24 z m 7.92,0 c -0.953,1.186 -2.03,2.012 -3.12,3.12 -2.214,2.25 -4.702,4.718 -6.72,6.72 -0.306,0.303 -1.795,1.081 -0.72,1.2 7.091,0.03 14.411,-0.654 20.64,0.239 -0.686,-3.819 -0.151,-7.441 -0.48,-11.04 -3.427,-0.265 -5.506,-0.131 -9.6,-0.239 z m 20.88,2.16 c 0.625,-0.496 1.088,-1.153 1.2,-2.16 -1.28,0 -2.56,0 -3.84,0 0.311,1.289 1.513,1.687 2.64,2.16 z M 68.16,448.8 c 2.871,-0.295 5.786,0.373 8.64,-0.24 -3.644,-2.516 -5.767,-6.553 -9.12,-9.359 0.609,2.75 -0.146,6.865 0.48,9.599 z m 133.2,-0.72 c 2.387,0.062 6.37,0.396 8.64,0 -0.308,-1.292 -1.344,-1.856 -2.4,-2.4 -1.77,-2.47 -4.095,-4.385 -6.479,-6.239 0.343,3.118 0.61,6.115 0.239,8.639 z m 22.08,-8.4 c -0.308,-0.013 -0.333,-0.308 -0.721,-0.239 -1.27,2.01 -4.026,2.533 -4.8,5.04 -0.307,-0.014 -0.332,-0.308 -0.72,-0.24 -1.028,1.292 -2.242,2.397 -3.12,3.84 3.561,0.051 7.599,-0.044 9.6,-0.24 -0.428,-2.315 -0.217,-6.2 -0.239,-8.161 z m -134.88,1.2 c -1.281,0.8 -2.181,1.979 -2.88,3.36 -1.215,0.26 -1.524,1.638 -2.16,2.399 -0.733,0.878 -1.952,1.389 -2.16,2.641 2.987,-0.202 4.524,-0.162 8.16,-0.24 -0.078,-3.129 -0.094,-5.757 0,-8.88 -0.051,-0.27 -0.266,-0.374 -0.48,-0.48 -0.102,0.458 -0.686,0.434 -0.48,1.2 z"
   style="fill-rule:evenodd"
   inkscape:connector-curvature="0" />

</g>
    <g
       id="g3118"
       transform="matrix(0.20748704,0,0,0.20748704,241.07493,172.95654)"
       inkscape:transform-center-y="79.331195">
      <path
         style="fill:#ffffff"
         inkscape:connector-curvature="0"
         d="M 0,0 938,0 938,458 0,458 0,0 m 27.03,33.02 c -0.11,128.05 0.08,256.11 -0.1,384.16 292.68,-0.19 585.36,0.16 878.04,-0.19 C 905.03,289 904.99,161 905,33.01 612.34,33.01 319.68,32.99 27.03,33.02 z"
         id="path3076" />
      <path
         style="fill:#ffffff"
         inkscape:connector-curvature="0"
         d="m 824.09,155.06 c 9.62,-4.23 22.42,0.71 26.08,10.72 3.23,9.49 2.32,20.27 -2.06,29.26 -3.64,6.3 -10.08,10.18 -16.09,13.93 2.33,4.3 4.56,8.66 7.01,12.91 10.66,3.52 19.92,10.24 30.58,13.78 2.16,0.63 3.27,2.75 4.64,4.36 -12.42,3.33 -22.41,-6.43 -33.11,-10.74 4.95,15.34 18.01,27.58 18.83,44.31 -4.99,1.06 -9.95,2.17 -14.96,3.09 3.23,7.25 6.13,14.82 6.34,22.87 -1.77,-0.23 -3.52,-0.46 -5.27,-0.69 -2.13,-8.08 -5.21,-15.86 -8.64,-23.47 -4.61,-0.72 -9.25,-1.24 -13.85,-1.96 -2.1,9.4 -5.23,18.7 -5.23,28.42 -1.64,-0.32 -3.49,-0.1 -4.93,-1.02 -2.66,-9.78 1.97,-19.34 3.83,-28.8 -3.39,-0.8 -6.78,-1.58 -10.18,-2.35 2.39,-12.94 5.23,-25.78 7.58,-38.72 -6.78,6.72 -14.82,12.54 -24.26,14.72 -0.65,-1.55 -1.24,-3.11 -1.79,-4.68 13.53,-6.36 25.75,-16.21 33.05,-29.44 -9.85,-1.86 -18.08,-9.31 -21.72,-18.52 -2.88,-8.96 0.94,-19.17 8.08,-25.02 5.34,-4.33 9.5,-10.34 16.07,-12.96 m 1.62,5.05 c 0.2,2.05 0.93,4.36 -0.35,6.22 -1.7,2.59 -5.03,2.88 -7.8,3.38 -0.97,2.77 -1.89,5.56 -2.72,8.38 -2.69,-0.12 -5.36,-0.33 -8.03,-0.54 -0.61,4.72 -2.31,9.66 -0.66,14.34 2.59,5.65 7.6,9.61 12.53,13.13 1.46,-2.94 3.37,-5.62 5.74,-7.89 1.38,2.1 2.76,4.21 4.17,6.3 3.82,-2.44 8.12,-4.29 11.3,-7.62 4.18,-4.88 5.67,-11.54 6,-17.81 -0.05,-4.57 -0.02,-9.86 -3.58,-13.27 -4.2,-4.52 -10.81,-5.08 -16.6,-4.62 m 1.57,54.34 c -8.09,15.68 -8.92,33.62 -12.8,50.53 6.53,1.2 13,2.75 19.54,3.92 3.05,-0.43 5.64,-2.56 8.51,-3.71 0.18,1.58 0.36,3.16 0.57,4.74 3.41,-0.17 6.84,-0.31 10.26,-0.65 -5.38,-17.87 -19.63,-31.8 -23.37,-50.29 -0.16,-1.88 -1.56,-3.2 -2.71,-4.54 z"
         id="path3080" />
      <g
         id="g3178"
         transform="translate(-152.57814,132.83274)">
        <g
           id="#0e0d0dff">
          <path
             clip-path="url(#clipPath3152)"
             style="fill:#0e0d0d"
             inkscape:connector-curvature="0"
             d="M 27.03,33.02 C 319.68,32.99 612.34,33.01 905,33.01 904.99,161 905.03,289 904.97,416.99 c -292.68,0.35 -585.36,0 -878.04,0.19 0.18,-128.05 -0.01,-256.11 0.1,-384.16 m 6.18,6.42 c -0.03,123.79 0.21,247.58 -0.13,371.36 179.97,0.36 359.93,0.09 539.89,0.14 108.64,-0.03 217.29,0.24 325.93,-0.2 -0.29,-29.24 -0.56,-58.48 0.07,-87.72 -45.51,-1.14 -91.05,1.03 -136.55,-1.13 1.02,-0.96 2,-1.98 2.98,-2.99 0.39,0.72 1.16,2.16 1.55,2.88 42.62,0.37 85.25,-0.54 127.86,0.39 0.5,-1.87 1.08,-3.7 1.8,-5.5 0.19,1.95 0.35,3.89 0.57,5.84 2.77,-3.51 2.73,-8.19 2.78,-12.44 -0.1,-47.67 0,-95.34 -0.03,-143.01 -0.07,-11.68 0.28,-23.38 -0.92,-35.01 -0.79,-30.88 -0.24,-61.76 -0.25,-92.64 C 610.24,39.34 321.73,39.29 33.21,39.44 z"
             id="path3083" />
        </g>
        <path
           id="path3086"
           d="m 59.49512,123.94985 c 6.36,0.07 12.71,-0.05 19.07,0.12 0.55,5.74 0.99,11.49 1.43,17.25 -3.4,-0.02 -6.8,-0.08 -10.19,0.06 -0.75,11.58 -0.84,23.78 4.35,34.47 16.65,-0.44 33.33,-0.83 49.96,0.13 6.81,0.43 11.85,7.25 11.31,13.85 -0.53,5.68 -1.84,11.29 -3.63,16.71 -7.87,23.16 -25.42,41.6 -44.84,55.77 -2.36,-0.02 -4.73,-0.08 -7.08,-0.17 -0.16,-6.28 -0.61,-12.55 -0.68,-18.83 16.1,-4.76 31.24,-15.08 39.03,-30.27 1.67,-3.59 3.43,-7.29 3.89,-11.26 -0.41,-3.48 -2.97,-6.12 -4.96,-8.83 -18.69,-0.06 -37.39,-0.33 -56.09,-0.01 -1.09,-22.98 -1.19,-45.99 -1.57,-68.99 z"
           inkscape:connector-curvature="0"
           style="fill:#cc0f15" />
        <path
           id="path3092"
           d="m -157.39488,167.78985 c 6.18,-3.39 11.18,2.72 13.71,7.65 25.28,0.38 50.58,-0.41 75.86,0.42 0.61,5.01 1.21,10.03 1.83,15.05 -3.32,1.24 -6.66,2.42 -9.99,3.63 -1.62,21.92 1.59,43.79 5.04,65.37 -4.72,1.93 -10.06,2.47 -15.03,3.82 -1.55,-23.55 -2.36,-47.17 -2.04,-70.77 -22.63,-0.81 -45.31,-1 -67.9,0.74 0.12,-8.67 -1.06,-17.27 -1.48,-25.91 z"
           inkscape:connector-curvature="0"
           style="fill:#cc0f15" />
        <path
           id="path3094"
           d="m -41.77488,166.33985 c 6.21,-0.82 11.17,4.02 12.77,9.62 21.11,-0.78 42.24,-0.75 63.34,0.16 0.06,4.83 0.15,9.67 0.31,14.5 -3.35,1.36 -6.71,2.7 -10.13,3.89 -0.57,21.79 0.41,43.63 3.08,65.26 -5,1.26 -9.94,2.74 -14.99,3.79 1.75,-23.6 0.91,-47.29 0.23,-70.92 -17.7,-0.8 -35.44,-0.29 -53.13,0.59 -0.56,-8.96 -1.15,-17.92 -1.48,-26.89 z"
           inkscape:connector-curvature="0"
           style="fill:#cc0f15" />
        <path
           id="path3096"
           d="m 325.68512,168.72985 c 2.25,-0.88 4.5,-1.77 6.75,-2.66 1.77,2.71 3.49,5.45 5.24,8.18 6.48,0.29 13.07,0.21 19.38,1.88 3.23,0.66 5.43,3.58 6.4,6.58 1.36,4.23 1.19,8.76 1.29,13.16 -0.2,21.66 1.3,43.28 2.7,64.88 -4.33,1.28 -8.55,2.91 -12.91,4.08 -1.75,-22.99 2.61,-46.66 -4.38,-69.06 -7.26,-2.6 -14.99,-3.3 -22.64,-3.58 -0.59,-7.82 -1.15,-15.65 -1.83,-23.46 z"
           inkscape:connector-curvature="0"
           style="fill:#cc0f15" />
        <path
           id="path3098"
           d="m 226.43512,167.36985 c 5.84,-0.98 11.01,2.97 13.02,8.25 15.54,-0.04 31.09,-0.58 46.62,0.3 3.59,0.02 7.11,1.62 9.5,4.31 4.69,5.3 5.91,12.85 4.98,19.69 -2.08,20.27 -13.43,38.58 -28.14,52.24 -5.82,5.24 -11.36,11.42 -19.02,13.91 -1.13,-7.39 -1.52,-14.88 -1.34,-22.35 8.79,-2 17.42,-5.68 24.05,-11.91 4.29,-3.92 7.15,-9.06 9.83,-14.13 3.82,-7.55 4.64,-17.19 -0.37,-24.41 -18.85,-0.86 -37.73,-0.36 -56.58,-0.41 -2.44,-8.09 -2.22,-17.01 -2.55,-25.49 z"
           inkscape:connector-curvature="0"
           style="fill:#cc0f15" />
        <path
           id="path3100"
           d="m 383.92512,168.06985 c 2.74,-0.08 5.48,-0.14 8.22,-0.2 0.96,2.57 1.95,5.13 2.99,7.67 5.41,0.06 10.82,0.16 16.22,0.49 -0.16,5.33 1.15,10.79 0.05,16.02 -2.65,2.51 -6.68,1.62 -9.98,2.27 0.45,18.73 3.6,38.26 14.13,54.16 6.57,-17.68 12.67,-35.61 16.49,-54.09 -2.26,-0.53 -4.61,-1.65 -5.35,-4.04 -1.44,-4.73 -0.38,-9.77 -1.09,-14.62 8.39,-0.21 16.78,-0.31 25.17,-0.16 0.57,5.7 1.58,11.36 2.06,17.08 -2.84,0.42 -5.65,0.95 -8.44,1.53 -6.6,17.27 -13.64,34.38 -19.69,51.86 12.27,-1.64 25.95,-2.35 35.71,-10.91 9.59,-11.76 12.96,-27.11 15.51,-41.72 -3.35,-0.17 -6.68,-0.44 -10.01,-0.68 -0.74,-5.67 -1.24,-11.35 -1.77,-17.03 9.5,-0.19 19.01,-0.21 28.52,-0.06 -0.43,4.78 0.45,9.81 -1.35,14.39 -0.91,2.52 -3.44,3.7 -5.8,4.47 -5.49,17.29 -6.45,36.86 -18.36,51.43 -8.9,9.75 -22.32,13.59 -35.01,15.29 -10.03,1.34 -20.17,1.65 -30.23,2.77 -5.32,-22.68 -8.03,-45.85 -10.1,-69.02 -2.27,-0.99 -5.12,-1.24 -6.93,-2.88 -0.4,-8 -0.68,-16.02 -0.96,-24.02 z"
           inkscape:connector-curvature="0"
           style="fill:#cc0f15" />
        <path
           id="path3102"
           d="m 157.59512,168.16985 c 2.8,-0.03 5.6,-0.04 8.4,-0.03 0.97,2.47 2.01,4.92 3.26,7.27 7.39,0.9 15.68,-1.46 22.32,2.86 5,3.68 4.15,10.62 4.64,16.08 0.11,22.47 1.56,44.89 2.02,67.35 -3.75,1.13 -7.49,2.25 -11.28,3.19 -2.14,-4.42 -1.25,-9.39 -1.4,-14.11 -0.31,-18.24 1.64,-36.95 -3.67,-54.7 -7.56,-2.32 -15.46,-3.37 -23.36,-3.47 -0.26,-8.15 -0.56,-16.29 -0.93,-24.44 z"
           inkscape:connector-curvature="0"
           style="fill:#cc0f15" />
        <path
           id="path3106"
           d="m 229.56512,215.62985 c 4.64,-1.36 9.28,-2.73 13.94,-4.07 -1.39,12.38 -1.8,24.86 -1.08,37.3 1.18,18.39 1.21,36.89 4.06,55.14 -5.27,1.18 -10.54,2.37 -15.85,3.33 1.78,-30.54 1.23,-61.2 -1.07,-91.7 z"
           inkscape:connector-curvature="0"
           style="fill:#cc0f15" />
        <path
           id="path3108"
           d="m -149.71488,216.37985 c 3.66,-1.34 7.26,-2.81 10.89,-4.23 -0.24,16.63 -0.98,33.24 -0.75,49.87 -4.35,0.78 -8.69,1.62 -13.02,2.46 1.09,-16.02 2.61,-32.03 2.88,-48.1 z"
           inkscape:connector-curvature="0"
           style="fill:#cc0f15" />
        <path
           id="path3110"
           d="m 90.40512,285.28985 c 14.15,-1.98 27.48,-7.68 41.66,-9.51 -0.39,1.88 -0.8,3.75 -1.29,5.61 -10.75,4.1 -22.12,6.12 -33.14,9.3 2.94,7.87 7.49,15.1 13.4,21.08 2.3,2.25 -0.54,5.39 -3.03,5.78 -7.64,-6.56 -12.63,-15.51 -16.63,-24.61 -11.31,2.82 -21.45,8.75 -31.53,14.4 -0.47,-2.26 -0.92,-4.53 -1.36,-6.79 10.31,-5.74 21.17,-10.43 31.92,-15.26 z"
           inkscape:connector-curvature="0"
           style="fill:#cc0f15" />
      </g>
    </g>
    <text
       xml:space="preserve"
       style="font-size:29.92421341px;font-style:normal;font-weight:normal;line-height:125%;letter-spacing:0px;word-spacing:0px;fill:#000000;fill-opacity:1;stroke:none;font-family:Sans"
       x="327.94839"
       y="253.93907"
       id="text3024"
       sodipodi:linespacing="125%"><tspan
         sodipodi:role="line"
         id="tspan3026"
         x="327.94839"
         y="253.93907">קמפיין הסבתות הגדול של </tspan></text>
    <text
       xml:space="preserve"
       style="font-size:40px;font-style:normal;font-weight:normal;line-height:125%;letter-spacing:0px;word-spacing:0px;fill:#000000;fill-opacity:1;stroke:none;font-family:Sans"
       x="572.85712"
       y="339.50504"
       id="text3192"
       sodipodi:linespacing="125%"><tspan
         sodipodi:role="line"
         id="tspan3194"
         x="572.85712"
         y="339.50504" /></text>
    <text
       xml:space="preserve"
       style="font-size:21.33362198px;font-style:normal;font-weight:normal;text-align:center;line-height:125%;letter-spacing:0px;word-spacing:0px;text-anchor:middle;fill:#000000;fill-opacity:1;stroke:none;font-family:Sans"
       x="387.16425"
       y="349.0004"
       id="text3196"
       sodipodi:linespacing="125%"
       inkscape:export-xdpi="90"
       inkscape:export-ydpi="90"><tspan
         sodipodi:role="line"
         id="tspan3198"
         x="387.16425"
         y="349.0004">סבתא שלי אוהבת אותי ואני אוהב אותה מאוד, </tspan><tspan
         sodipodi:role="line"
         x="387.16425"
         y="375.66742"
         id="tspan3214">אני פשוט לא אומר לה את זה מספיק...</tspan><tspan
         sodipodi:role="line"
         x="387.16425"
         y="402.33444"
         id="tspan3218" /><tspan
         sodipodi:role="line"
         x="387.16425"
         y="429.00146"
         id="tspan3220">אז בואו נעשה כבוד לסבתא שלנו (או לסבא) </tspan><tspan
         sodipodi:role="line"
         x="387.16425"
         y="455.66852"
         id="tspan3232">ונספר להם כמה אנחנו אוהבים אותם !</tspan><tspan
         sodipodi:role="line"
         x="387.16425"
         y="482.33554"
         id="tspan3224" /><tspan
         sodipodi:role="line"
         x="387.16425"
         y="509.00256"
         id="tspan3202">העלנו לדף הפייסבוק שלנו קובץ שהוא בעצם שלט עם הכיתוב </tspan><tspan
         sodipodi:role="line"
         x="387.16425"
         y="535.66962"
         id="tspan3234">&quot;אני אוהב את סבתא שלי&quot; (יש את כל הקומבינציות)</tspan><tspan
         sodipodi:role="line"
         x="387.16425"
         y="562.33661"
         id="tspan3226" /><tspan
         sodipodi:role="line"
         x="387.16425"
         y="589.00366"
         id="tspan3204">אתם מוזמנים לצלם את הנכד עם השלט והסבתא </tspan><tspan
         sodipodi:role="line"
         x="387.16425"
         y="615.67065"
         id="tspan3236">ולהעלות לדף הפייסבוק שלנו.</tspan><tspan
         sodipodi:role="line"
         x="387.16425"
         y="642.33771"
         id="tspan3228" /><tspan
         sodipodi:role="line"
         x="387.16425"
         y="669.0047"
         id="tspan3206">מי שיתמוך בפרוייקט דרך הדסטרט וגם יעלה תמונה, </tspan><tspan
         sodipodi:role="line"
         x="387.16425"
         y="695.67175"
         id="tspan3230">יקבל קופון נוסף לאתר בשווי 20 ש&quot;ח.</tspan><tspan
         sodipodi:role="line"
         x="387.16425"
         y="722.33881"
         id="tspan3238"> (מוגבל ל50 המשתתפים הראשונים).</tspan></text>
    <g
       id="g3337"
       transform="matrix(0.22691828,0,0,0.22691828,279.11495,758.96933)">
      <g
         id="#ffffffff">
        <path
           id="path3295"
           d="M 0,0 938,0 938,458 0,458 0,0 m 27.03,33.02 c -0.11,128.05 0.08,256.11 -0.1,384.16 292.68,-0.19 585.36,0.16 878.04,-0.19 C 905.03,289 904.99,161 905,33.01 612.34,33.01 319.68,32.99 27.03,33.02 z"
           inkscape:connector-curvature="0"
           style="fill:#ffffff" />
        <path
           id="path3297"
           d="m 33.21,39.44 c 288.52,-0.15 577.03,-0.1 865.55,-0.03 0.01,30.88 -0.54,61.76 0.25,92.64 -45.8,0.14 -91.6,0.07 -137.4,0.03 -0.18,63.28 0.09,126.57 -0.14,189.86 l 0.95,-0.05 c 45.5,2.16 91.04,-0.01 136.55,1.13 -0.63,29.24 -0.36,58.48 -0.07,87.72 -108.64,0.44 -217.29,0.17 -325.93,0.2 -179.96,-0.05 -359.92,0.22 -539.89,-0.14 0.34,-123.78 0.1,-247.57 0.13,-371.36 m 263.23,91.69 c 0.38,23 0.48,46.01 1.57,68.99 18.7,-0.32 37.4,-0.05 56.09,0.01 1.99,2.71 4.55,5.35 4.96,8.83 -0.46,3.97 -2.22,7.67 -3.89,11.26 -7.79,15.19 -22.93,25.51 -39.03,30.27 0.07,6.28 0.52,12.55 0.68,18.83 2.35,0.09 4.72,0.15 7.08,0.17 19.42,-14.17 36.97,-32.61 44.84,-55.77 1.79,-5.42 3.1,-11.03 3.63,-16.71 0.54,-6.6 -4.5,-13.42 -11.31,-13.85 -16.63,-0.96 -33.31,-0.57 -49.96,-0.13 -5.19,-10.69 -5.1,-22.89 -4.35,-34.47 3.39,-0.14 6.79,-0.08 10.19,-0.06 -0.44,-5.76 -0.88,-11.51 -1.43,-17.25 -6.36,-0.17 -12.71,-0.05 -19.07,-0.12 M 79.55,174.97 c 0.42,8.64 1.6,17.24 1.48,25.91 22.59,-1.74 45.27,-1.55 67.9,-0.74 -0.32,23.6 0.49,47.22 2.04,70.77 4.97,-1.35 10.31,-1.89 15.03,-3.82 -3.45,-21.58 -6.66,-43.45 -5.04,-65.37 3.33,-1.21 6.67,-2.39 9.99,-3.63 -0.62,-5.02 -1.22,-10.04 -1.83,-15.05 -25.28,-0.83 -50.58,-0.04 -75.86,-0.42 -2.53,-4.93 -7.53,-11.04 -13.71,-7.65 m 115.62,-1.45 c 0.33,8.97 0.92,17.93 1.48,26.89 17.69,-0.88 35.43,-1.39 53.13,-0.59 0.68,23.63 1.52,47.32 -0.23,70.92 5.05,-1.05 9.99,-2.53 14.99,-3.79 -2.67,-21.63 -3.65,-43.47 -3.08,-65.26 3.42,-1.19 6.78,-2.53 10.13,-3.89 -0.16,-4.83 -0.25,-9.67 -0.31,-14.5 -21.1,-0.91 -42.23,-0.94 -63.34,-0.16 -1.6,-5.6 -6.56,-10.44 -12.77,-9.62 m 367.46,2.39 c 0.68,7.81 1.24,15.64 1.83,23.46 7.65,0.28 15.38,0.98 22.64,3.58 6.99,22.4 2.63,46.07 4.38,69.06 4.36,-1.17 8.58,-2.8 12.91,-4.08 -1.4,-21.6 -2.9,-43.22 -2.7,-64.88 -0.1,-4.4 0.07,-8.93 -1.29,-13.16 -0.97,-3 -3.17,-5.92 -6.4,-6.58 -6.31,-1.67 -12.9,-1.59 -19.38,-1.88 -1.75,-2.73 -3.47,-5.47 -5.24,-8.18 -2.25,0.89 -4.5,1.78 -6.75,2.66 m -99.25,-1.36 c 0.33,8.48 0.11,17.4 2.55,25.49 18.85,0.05 37.73,-0.45 56.58,0.41 5.01,7.22 4.19,16.86 0.37,24.41 -2.68,5.07 -5.54,10.21 -9.83,14.13 -6.63,6.23 -15.26,9.91 -24.05,11.91 -0.18,7.47 0.21,14.96 1.34,22.35 7.66,-2.49 13.2,-8.67 19.02,-13.91 14.71,-13.66 26.06,-31.97 28.14,-52.24 0.93,-6.84 -0.29,-14.39 -4.98,-19.69 -2.39,-2.69 -5.91,-4.29 -9.5,-4.31 -15.53,-0.88 -31.08,-0.34 -46.62,-0.3 -2.01,-5.28 -7.18,-9.23 -13.02,-8.25 m 157.49,0.7 c 0.28,8 0.56,16.02 0.96,24.02 1.81,1.64 4.66,1.89 6.93,2.88 2.07,23.17 4.78,46.34 10.1,69.02 10.06,-1.12 20.2,-1.43 30.23,-2.77 12.69,-1.7 26.11,-5.54 35.01,-15.29 11.91,-14.57 12.87,-34.14 18.36,-51.43 2.36,-0.77 4.89,-1.95 5.8,-4.47 1.8,-4.58 0.92,-9.61 1.35,-14.39 -9.51,-0.15 -19.02,-0.13 -28.52,0.06 0.53,5.68 1.03,11.36 1.77,17.03 3.33,0.24 6.66,0.51 10.01,0.68 -2.55,14.61 -5.92,29.96 -15.51,41.72 -9.76,8.56 -23.44,9.27 -35.71,10.91 6.05,-17.48 13.09,-34.59 19.69,-51.86 2.79,-0.58 5.6,-1.11 8.44,-1.53 -0.48,-5.72 -1.49,-11.38 -2.06,-17.08 -8.39,-0.15 -16.78,-0.05 -25.17,0.16 0.71,4.85 -0.35,9.89 1.09,14.62 0.74,2.39 3.09,3.51 5.35,4.04 -3.82,18.48 -9.92,36.41 -16.49,54.09 -10.53,-15.9 -13.68,-35.43 -14.13,-54.16 3.3,-0.65 7.33,0.24 9.98,-2.27 1.1,-5.23 -0.21,-10.69 -0.05,-16.02 -5.4,-0.33 -10.81,-0.43 -16.22,-0.49 -1.04,-2.54 -2.03,-5.1 -2.99,-7.67 -2.74,0.06 -5.48,0.12 -8.22,0.2 m -226.33,0.1 c 0.37,8.15 0.67,16.29 0.93,24.44 7.9,0.1 15.8,1.15 23.36,3.47 5.31,17.75 3.36,36.46 3.67,54.7 0.15,4.72 -0.74,9.69 1.4,14.11 3.79,-0.94 7.53,-2.06 11.28,-3.19 -0.46,-22.46 -1.91,-44.88 -2.02,-67.35 -0.49,-5.46 0.36,-12.4 -4.64,-16.08 -6.64,-4.32 -14.93,-1.96 -22.32,-2.86 -1.25,-2.35 -2.29,-4.8 -3.26,-7.27 -2.8,-0.01 -5.6,0 -8.4,0.03 m 71.97,47.46 c 2.3,30.5 2.85,61.16 1.07,91.7 5.31,-0.96 10.58,-2.15 15.85,-3.33 -2.85,-18.25 -2.88,-36.75 -4.06,-55.14 -0.72,-12.44 -0.31,-24.92 1.08,-37.3 -4.66,1.34 -9.3,2.71 -13.94,4.07 m -379.28,0.75 c -0.27,16.07 -1.79,32.08 -2.88,48.1 4.33,-0.84 8.67,-1.68 13.02,-2.46 -0.23,-16.63 0.51,-33.24 0.75,-49.87 -3.63,1.42 -7.23,2.89 -10.89,4.23 m 240.12,68.91 c -10.75,4.83 -21.61,9.52 -31.92,15.26 0.44,2.26 0.89,4.53 1.36,6.79 10.08,-5.65 20.22,-11.58 31.53,-14.4 4,9.1 8.99,18.05 16.63,24.61 2.49,-0.39 5.33,-3.53 3.03,-5.78 -5.91,-5.98 -10.46,-13.21 -13.4,-21.08 11.02,-3.18 22.39,-5.2 33.14,-9.3 0.49,-1.86 0.9,-3.73 1.29,-5.61 -14.18,1.83 -27.51,7.53 -41.66,9.51 z"
           inkscape:connector-curvature="0"
           style="fill:#ffffff" />
        <path
           id="path3299"
           d="m 824.09,155.06 c 9.62,-4.23 22.42,0.71 26.08,10.72 3.23,9.49 2.32,20.27 -2.06,29.26 -3.64,6.3 -10.08,10.18 -16.09,13.93 2.33,4.3 4.56,8.66 7.01,12.91 10.66,3.52 19.92,10.24 30.58,13.78 2.16,0.63 3.27,2.75 4.64,4.36 -12.42,3.33 -22.41,-6.43 -33.11,-10.74 4.95,15.34 18.01,27.58 18.83,44.31 -4.99,1.06 -9.95,2.17 -14.96,3.09 3.23,7.25 6.13,14.82 6.34,22.87 -1.77,-0.23 -3.52,-0.46 -5.27,-0.69 -2.13,-8.08 -5.21,-15.86 -8.64,-23.47 -4.61,-0.72 -9.25,-1.24 -13.85,-1.96 -2.1,9.4 -5.23,18.7 -5.23,28.42 -1.64,-0.32 -3.49,-0.1 -4.93,-1.02 -2.66,-9.78 1.97,-19.34 3.83,-28.8 -3.39,-0.8 -6.78,-1.58 -10.18,-2.35 2.39,-12.94 5.23,-25.78 7.58,-38.72 -6.78,6.72 -14.82,12.54 -24.26,14.72 -0.65,-1.55 -1.24,-3.11 -1.79,-4.68 13.53,-6.36 25.75,-16.21 33.05,-29.44 -9.85,-1.86 -18.08,-9.31 -21.72,-18.52 -2.88,-8.96 0.94,-19.17 8.08,-25.02 5.34,-4.33 9.5,-10.34 16.07,-12.96 m 1.62,5.05 c 0.2,2.05 0.93,4.36 -0.35,6.22 -1.7,2.59 -5.03,2.88 -7.8,3.38 -0.97,2.77 -1.89,5.56 -2.72,8.38 -2.69,-0.12 -5.36,-0.33 -8.03,-0.54 -0.61,4.72 -2.31,9.66 -0.66,14.34 2.59,5.65 7.6,9.61 12.53,13.13 1.46,-2.94 3.37,-5.62 5.74,-7.89 1.38,2.1 2.76,4.21 4.17,6.3 3.82,-2.44 8.12,-4.29 11.3,-7.62 4.18,-4.88 5.67,-11.54 6,-17.81 -0.05,-4.57 -0.02,-9.86 -3.58,-13.27 -4.2,-4.52 -10.81,-5.08 -16.6,-4.62 m 1.57,54.34 c -8.09,15.68 -8.92,33.62 -12.8,50.53 6.53,1.2 13,2.75 19.54,3.92 3.05,-0.43 5.64,-2.56 8.51,-3.71 0.18,1.58 0.36,3.16 0.57,4.74 3.41,-0.17 6.84,-0.31 10.26,-0.65 -5.38,-17.87 -19.63,-31.8 -23.37,-50.29 -0.16,-1.88 -1.56,-3.2 -2.71,-4.54 z"
           inkscape:connector-curvature="0"
           style="fill:#ffffff" />
      </g>
      <g
         id="#0e0d0dff-1">
        <path
           id="path3302"
           d="M 27.03,33.02 C 319.68,32.99 612.34,33.01 905,33.01 904.99,161 905.03,289 904.97,416.99 c -292.68,0.35 -585.36,0 -878.04,0.19 0.18,-128.05 -0.01,-256.11 0.1,-384.16 m 6.18,6.42 c -0.03,123.79 0.21,247.58 -0.13,371.36 179.97,0.36 359.93,0.09 539.89,0.14 108.64,-0.03 217.29,0.24 325.93,-0.2 -0.29,-29.24 -0.56,-58.48 0.07,-87.72 -45.51,-1.14 -91.05,1.03 -136.55,-1.13 1.02,-0.96 2,-1.98 2.98,-2.99 0.39,0.72 1.16,2.16 1.55,2.88 42.62,0.37 85.25,-0.54 127.86,0.39 0.5,-1.87 1.08,-3.7 1.8,-5.5 0.19,1.95 0.35,3.89 0.57,5.84 2.77,-3.51 2.73,-8.19 2.78,-12.44 -0.1,-47.67 0,-95.34 -0.03,-143.01 -0.07,-11.68 0.28,-23.38 -0.92,-35.01 -0.79,-30.88 -0.24,-61.76 -0.25,-92.64 C 610.24,39.34 321.73,39.29 33.21,39.44 z"
           inkscape:connector-curvature="0"
           style="fill:#0e0d0d" />
      </g>
      <g
         id="#cc0f15ff">
        <path
           id="path3305"
           d="m 296.44,131.13 c 6.36,0.07 12.71,-0.05 19.07,0.12 0.55,5.74 0.99,11.49 1.43,17.25 -3.4,-0.02 -6.8,-0.08 -10.19,0.06 -0.75,11.58 -0.84,23.78 4.35,34.47 16.65,-0.44 33.33,-0.83 49.96,0.13 6.81,0.43 11.85,7.25 11.31,13.85 -0.53,5.68 -1.84,11.29 -3.63,16.71 -7.87,23.16 -25.42,41.6 -44.84,55.77 -2.36,-0.02 -4.73,-0.08 -7.08,-0.17 -0.16,-6.28 -0.61,-12.55 -0.68,-18.83 16.1,-4.76 31.24,-15.08 39.03,-30.27 1.67,-3.59 3.43,-7.29 3.89,-11.26 -0.41,-3.48 -2.97,-6.12 -4.96,-8.83 -18.69,-0.06 -37.39,-0.33 -56.09,-0.01 -1.09,-22.98 -1.19,-45.99 -1.57,-68.99 z"
           inkscape:connector-curvature="0"
           style="fill:#cc0f15" />
        <path
           id="path3307"
           d="m 761.61,132.08 c 45.8,0.04 91.6,0.11 137.4,-0.03 1.2,11.63 0.85,23.33 0.92,35.01 0.03,47.67 -0.07,95.34 0.03,143.01 -0.05,4.25 -0.01,8.93 -2.78,12.44 -0.22,-1.95 -0.38,-3.89 -0.57,-5.84 -0.72,1.8 -1.3,3.63 -1.8,5.5 -42.61,-0.93 -85.24,-0.02 -127.86,-0.39 -0.39,-0.72 -1.16,-2.16 -1.55,-2.88 -0.98,1.01 -1.96,2.03 -2.98,2.99 l -0.95,0.05 c 0.23,-63.29 -0.04,-126.58 0.14,-189.86 m 62.48,22.98 c -6.57,2.62 -10.73,8.63 -16.07,12.96 -7.14,5.85 -10.96,16.06 -8.08,25.02 3.64,9.21 11.87,16.66 21.72,18.52 -7.3,13.23 -19.52,23.08 -33.05,29.44 0.55,1.57 1.14,3.13 1.79,4.68 9.44,-2.18 17.48,-8 24.26,-14.72 -2.35,12.94 -5.19,25.78 -7.58,38.72 3.4,0.77 6.79,1.55 10.18,2.35 -1.86,9.46 -6.49,19.02 -3.83,28.8 1.44,0.92 3.29,0.7 4.93,1.02 0,-9.72 3.13,-19.02 5.23,-28.42 4.6,0.72 9.24,1.24 13.85,1.96 3.43,7.61 6.51,15.39 8.64,23.47 1.75,0.23 3.5,0.46 5.27,0.69 -0.21,-8.05 -3.11,-15.62 -6.34,-22.87 5.01,-0.92 9.97,-2.03 14.96,-3.09 -0.82,-16.73 -13.88,-28.97 -18.83,-44.31 10.7,4.31 20.69,14.07 33.11,10.74 -1.37,-1.61 -2.48,-3.73 -4.64,-4.36 -10.66,-3.54 -19.92,-10.26 -30.58,-13.78 -2.45,-4.25 -4.68,-8.61 -7.01,-12.91 6.01,-3.75 12.45,-7.63 16.09,-13.93 4.38,-8.99 5.29,-19.77 2.06,-29.26 -3.66,-10.01 -16.46,-14.95 -26.08,-10.72 z"
           inkscape:connector-curvature="0"
           style="fill:#cc0f15" />
        <path
           id="path3309"
           d="m 825.71,160.11 c 5.79,-0.46 12.4,0.1 16.6,4.62 3.56,3.41 3.53,8.7 3.58,13.27 -0.33,6.27 -1.82,12.93 -6,17.81 -3.18,3.33 -7.48,5.18 -11.3,7.62 -1.41,-2.09 -2.79,-4.2 -4.17,-6.3 -2.37,2.27 -4.28,4.95 -5.74,7.89 -4.93,-3.52 -9.94,-7.48 -12.53,-13.13 -1.65,-4.68 0.05,-9.62 0.66,-14.34 2.67,0.21 5.34,0.42 8.03,0.54 0.83,-2.82 1.75,-5.61 2.72,-8.38 2.77,-0.5 6.1,-0.79 7.8,-3.38 1.28,-1.86 0.55,-4.17 0.35,-6.22 z"
           inkscape:connector-curvature="0"
           style="fill:#cc0f15" />
        <path
           id="path3311"
           d="m 79.55,174.97 c 6.18,-3.39 11.18,2.72 13.71,7.65 25.28,0.38 50.58,-0.41 75.86,0.42 0.61,5.01 1.21,10.03 1.83,15.05 -3.32,1.24 -6.66,2.42 -9.99,3.63 -1.62,21.92 1.59,43.79 5.04,65.37 -4.72,1.93 -10.06,2.47 -15.03,3.82 -1.55,-23.55 -2.36,-47.17 -2.04,-70.77 -22.63,-0.81 -45.31,-1 -67.9,0.74 0.12,-8.67 -1.06,-17.27 -1.48,-25.91 z"
           inkscape:connector-curvature="0"
           style="fill:#cc0f15" />
        <path
           id="path3313"
           d="m 195.17,173.52 c 6.21,-0.82 11.17,4.02 12.77,9.62 21.11,-0.78 42.24,-0.75 63.34,0.16 0.06,4.83 0.15,9.67 0.31,14.5 -3.35,1.36 -6.71,2.7 -10.13,3.89 -0.57,21.79 0.41,43.63 3.08,65.26 -5,1.26 -9.94,2.74 -14.99,3.79 1.75,-23.6 0.91,-47.29 0.23,-70.92 -17.7,-0.8 -35.44,-0.29 -53.13,0.59 -0.56,-8.96 -1.15,-17.92 -1.48,-26.89 z"
           inkscape:connector-curvature="0"
           style="fill:#cc0f15" />
        <path
           id="path3315"
           d="m 562.63,175.91 c 2.25,-0.88 4.5,-1.77 6.75,-2.66 1.77,2.71 3.49,5.45 5.24,8.18 6.48,0.29 13.07,0.21 19.38,1.88 3.23,0.66 5.43,3.58 6.4,6.58 1.36,4.23 1.19,8.76 1.29,13.16 -0.2,21.66 1.3,43.28 2.7,64.88 -4.33,1.28 -8.55,2.91 -12.91,4.08 -1.75,-22.99 2.61,-46.66 -4.38,-69.06 -7.26,-2.6 -14.99,-3.3 -22.64,-3.58 -0.59,-7.82 -1.15,-15.65 -1.83,-23.46 z"
           inkscape:connector-curvature="0"
           style="fill:#cc0f15" />
        <path
           id="path3317"
           d="m 463.38,174.55 c 5.84,-0.98 11.01,2.97 13.02,8.25 15.54,-0.04 31.09,-0.58 46.62,0.3 3.59,0.02 7.11,1.62 9.5,4.31 4.69,5.3 5.91,12.85 4.98,19.69 -2.08,20.27 -13.43,38.58 -28.14,52.24 -5.82,5.24 -11.36,11.42 -19.02,13.91 -1.13,-7.39 -1.52,-14.88 -1.34,-22.35 8.79,-2 17.42,-5.68 24.05,-11.91 4.29,-3.92 7.15,-9.06 9.83,-14.13 3.82,-7.55 4.64,-17.19 -0.37,-24.41 -18.85,-0.86 -37.73,-0.36 -56.58,-0.41 -2.44,-8.09 -2.22,-17.01 -2.55,-25.49 z"
           inkscape:connector-curvature="0"
           style="fill:#cc0f15" />
        <path
           id="path3319"
           d="m 620.87,175.25 c 2.74,-0.08 5.48,-0.14 8.22,-0.2 0.96,2.57 1.95,5.13 2.99,7.67 5.41,0.06 10.82,0.16 16.22,0.49 -0.16,5.33 1.15,10.79 0.05,16.02 -2.65,2.51 -6.68,1.62 -9.98,2.27 0.45,18.73 3.6,38.26 14.13,54.16 6.57,-17.68 12.67,-35.61 16.49,-54.09 -2.26,-0.53 -4.61,-1.65 -5.35,-4.04 -1.44,-4.73 -0.38,-9.77 -1.09,-14.62 8.39,-0.21 16.78,-0.31 25.17,-0.16 0.57,5.7 1.58,11.36 2.06,17.08 -2.84,0.42 -5.65,0.95 -8.44,1.53 -6.6,17.27 -13.64,34.38 -19.69,51.86 12.27,-1.64 25.95,-2.35 35.71,-10.91 9.59,-11.76 12.96,-27.11 15.51,-41.72 -3.35,-0.17 -6.68,-0.44 -10.01,-0.68 -0.74,-5.67 -1.24,-11.35 -1.77,-17.03 9.5,-0.19 19.01,-0.21 28.52,-0.06 -0.43,4.78 0.45,9.81 -1.35,14.39 -0.91,2.52 -3.44,3.7 -5.8,4.47 -5.49,17.29 -6.45,36.86 -18.36,51.43 -8.9,9.75 -22.32,13.59 -35.01,15.29 -10.03,1.34 -20.17,1.65 -30.23,2.77 -5.32,-22.68 -8.03,-45.85 -10.1,-69.02 -2.27,-0.99 -5.12,-1.24 -6.93,-2.88 -0.4,-8 -0.68,-16.02 -0.96,-24.02 z"
           inkscape:connector-curvature="0"
           style="fill:#cc0f15" />
        <path
           id="path3321"
           d="m 394.54,175.35 c 2.8,-0.03 5.6,-0.04 8.4,-0.03 0.97,2.47 2.01,4.92 3.26,7.27 7.39,0.9 15.68,-1.46 22.32,2.86 5,3.68 4.15,10.62 4.64,16.08 0.11,22.47 1.56,44.89 2.02,67.35 -3.75,1.13 -7.49,2.25 -11.28,3.19 -2.14,-4.42 -1.25,-9.39 -1.4,-14.11 -0.31,-18.24 1.64,-36.95 -3.67,-54.7 -7.56,-2.32 -15.46,-3.37 -23.36,-3.47 -0.26,-8.15 -0.56,-16.29 -0.93,-24.44 z"
           inkscape:connector-curvature="0"
           style="fill:#cc0f15" />
        <path
           id="path3323"
           d="m 827.28,214.45 c 1.15,1.34 2.55,2.66 2.71,4.54 3.74,18.49 17.99,32.42 23.37,50.29 -3.42,0.34 -6.85,0.48 -10.26,0.65 -0.21,-1.58 -0.39,-3.16 -0.57,-4.74 -2.87,1.15 -5.46,3.28 -8.51,3.71 -6.54,-1.17 -13.01,-2.72 -19.54,-3.92 3.88,-16.91 4.71,-34.85 12.8,-50.53 z"
           inkscape:connector-curvature="0"
           style="fill:#cc0f15" />
        <path
           id="path3325"
           d="m 466.51,222.81 c 4.64,-1.36 9.28,-2.73 13.94,-4.07 -1.39,12.38 -1.8,24.86 -1.08,37.3 1.18,18.39 1.21,36.89 4.06,55.14 -5.27,1.18 -10.54,2.37 -15.85,3.33 1.78,-30.54 1.23,-61.2 -1.07,-91.7 z"
           inkscape:connector-curvature="0"
           style="fill:#cc0f15" />
        <path
           id="path3327"
           d="m 87.23,223.56 c 3.66,-1.34 7.26,-2.81 10.89,-4.23 -0.24,16.63 -0.98,33.24 -0.75,49.87 -4.35,0.78 -8.69,1.62 -13.02,2.46 1.09,-16.02 2.61,-32.03 2.88,-48.1 z"
           inkscape:connector-curvature="0"
           style="fill:#cc0f15" />
        <path
           id="path3329"
           d="m 327.35,292.47 c 14.15,-1.98 27.48,-7.68 41.66,-9.51 -0.39,1.88 -0.8,3.75 -1.29,5.61 -10.75,4.1 -22.12,6.12 -33.14,9.3 2.94,7.87 7.49,15.1 13.4,21.08 2.3,2.25 -0.54,5.39 -3.03,5.78 -7.64,-6.56 -12.63,-15.51 -16.63,-24.61 -11.31,2.82 -21.45,8.75 -31.53,14.4 -0.47,-2.26 -0.92,-4.53 -1.36,-6.79 10.31,-5.74 21.17,-10.43 31.92,-15.26 z"
           inkscape:connector-curvature="0"
           style="fill:#cc0f15" />
      </g>
    </g>
  </g>
</svg>
