<?xml version="1.0" encoding="UTF-8" ?>
<!DOCTYPE svg PUBLIC "-//W3C//DTD SVG 1.1//EN" "http://www.w3.org/Graphics/SVG/1.1/DTD/svg11.dtd">
<svg width="938pt" height="458pt" viewBox="0 0 938 458" version="1.1" xmlns="http://www.w3.org/2000/svg">
<g id="#ffffffff">
<path fill="#ffffff" opacity="1.00" d=" M 0.00 0.00 L 938.00 0.00 L 938.00 458.00 L 0.00 458.00 L 0.00 0.00 M 27.03 33.02 C 26.92 161.07 27.11 289.13 26.93 417.18 C 319.61 416.99 612.29 417.34 904.97 416.99 C 905.03 289.00 904.99 161.00 905.00 33.01 C 612.34 33.01 319.68 32.99 27.03 33.02 Z" />
<path fill="#ffffff" opacity="1.00" d=" M 33.21 39.44 C 321.73 39.29 610.24 39.34 898.76 39.41 C 898.77 70.29 898.22 101.17 899.01 132.05 C 853.21 132.19 807.41 132.12 761.61 132.08 C 761.43 195.36 761.70 258.65 761.47 321.94 L 762.42 321.89 C 807.92 324.05 853.46 321.88 898.97 323.02 C 898.34 352.26 898.61 381.50 898.90 410.74 C 790.26 411.18 681.61 410.91 572.97 410.94 C 393.01 410.89 213.05 411.16 33.08 410.80 C 33.42 287.02 33.18 163.23 33.21 39.44 M 296.44 131.13 C 296.82 154.13 296.92 177.14 298.01 200.12 C 316.71 199.80 335.41 200.07 354.10 200.13 C 356.09 202.84 358.65 205.48 359.06 208.96 C 358.60 212.93 356.84 216.63 355.17 220.22 C 347.38 235.41 332.24 245.73 316.14 250.49 C 316.21 256.77 316.66 263.04 316.82 269.32 C 319.17 269.41 321.54 269.47 323.90 269.49 C 343.32 255.32 360.87 236.88 368.74 213.72 C 370.53 208.30 371.84 202.69 372.37 197.01 C 372.91 190.41 367.87 183.59 361.06 183.16 C 344.43 182.20 327.75 182.59 311.10 183.03 C 305.91 172.34 306.00 160.14 306.75 148.56 C 310.14 148.42 313.54 148.48 316.94 148.50 C 316.50 142.74 316.06 136.99 315.51 131.25 C 309.15 131.08 302.80 131.20 296.44 131.13 M 79.55 174.97 C 79.97 183.61 81.15 192.21 81.03 200.88 C 103.62 199.14 126.30 199.33 148.93 200.14 C 148.61 223.74 149.42 247.36 150.97 270.91 C 155.94 269.56 161.28 269.02 166.00 267.09 C 162.55 245.51 159.34 223.64 160.96 201.72 C 164.29 200.51 167.63 199.33 170.95 198.09 C 170.33 193.07 169.73 188.05 169.12 183.04 C 143.84 182.21 118.54 183.00 93.26 182.62 C 90.73 177.69 85.73 171.58 79.55 174.97 M 195.17 173.52 C 195.50 182.49 196.09 191.45 196.65 200.41 C 214.34 199.53 232.08 199.02 249.78 199.82 C 250.46 223.45 251.30 247.14 249.55 270.74 C 254.60 269.69 259.54 268.21 264.54 266.95 C 261.87 245.32 260.89 223.48 261.46 201.69 C 264.88 200.50 268.24 199.16 271.59 197.80 C 271.43 192.97 271.34 188.13 271.28 183.30 C 250.18 182.39 229.05 182.36 207.94 183.14 C 206.34 177.54 201.38 172.70 195.17 173.52 M 562.63 175.91 C 563.31 183.72 563.87 191.55 564.46 199.37 C 572.11 199.65 579.84 200.35 587.10 202.95 C 594.09 225.35 589.73 249.02 591.48 272.01 C 595.84 270.84 600.06 269.21 604.39 267.93 C 602.99 246.33 601.49 224.71 601.69 203.05 C 601.59 198.65 601.76 194.12 600.40 189.89 C 599.43 186.89 597.23 183.97 594.00 183.31 C 587.69 181.64 581.10 181.72 574.62 181.43 C 572.87 178.70 571.15 175.96 569.38 173.25 C 567.13 174.14 564.88 175.03 562.63 175.91 M 463.38 174.55 C 463.71 183.03 463.49 191.95 465.93 200.04 C 484.78 200.09 503.66 199.59 522.51 200.45 C 527.52 207.67 526.70 217.31 522.88 224.86 C 520.20 229.93 517.34 235.07 513.05 238.99 C 506.42 245.22 497.79 248.90 489.00 250.90 C 488.82 258.37 489.21 265.86 490.34 273.25 C 498.00 270.76 503.54 264.58 509.36 259.34 C 524.07 245.68 535.42 227.37 537.50 207.10 C 538.43 200.26 537.21 192.71 532.52 187.41 C 530.13 184.72 526.61 183.12 523.02 183.10 C 507.49 182.22 491.94 182.76 476.40 182.80 C 474.39 177.52 469.22 173.57 463.38 174.55 M 620.87 175.25 C 621.15 183.25 621.43 191.27 621.83 199.27 C 623.64 200.91 626.49 201.16 628.76 202.15 C 630.83 225.32 633.54 248.49 638.86 271.17 C 648.92 270.05 659.06 269.74 669.09 268.40 C 681.78 266.70 695.20 262.86 704.10 253.11 C 716.01 238.54 716.97 218.97 722.46 201.68 C 724.82 200.91 727.35 199.73 728.26 197.21 C 730.06 192.63 729.18 187.60 729.61 182.82 C 720.10 182.67 710.59 182.69 701.09 182.88 C 701.62 188.56 702.12 194.24 702.86 199.91 C 706.19 200.15 709.52 200.42 712.87 200.59 C 710.32 215.20 706.95 230.55 697.36 242.31 C 687.60 250.87 673.92 251.58 661.65 253.22 C 667.70 235.74 674.74 218.63 681.34 201.36 C 684.13 200.78 686.94 200.25 689.78 199.83 C 689.30 194.11 688.29 188.45 687.72 182.75 C 679.33 182.60 670.94 182.70 662.55 182.91 C 663.26 187.76 662.20 192.80 663.64 197.53 C 664.38 199.92 666.73 201.04 668.99 201.57 C 665.17 220.05 659.07 237.98 652.50 255.66 C 641.97 239.76 638.82 220.23 638.37 201.50 C 641.67 200.85 645.70 201.74 648.35 199.23 C 649.45 194.00 648.14 188.54 648.30 183.21 C 642.90 182.88 637.49 182.78 632.08 182.72 C 631.04 180.18 630.05 177.62 629.09 175.05 C 626.35 175.11 623.61 175.17 620.87 175.25 M 394.54 175.35 C 394.91 183.50 395.21 191.64 395.47 199.79 C 403.37 199.89 411.27 200.94 418.83 203.26 C 424.14 221.01 422.19 239.72 422.50 257.96 C 422.65 262.68 421.76 267.65 423.90 272.07 C 427.69 271.13 431.43 270.01 435.18 268.88 C 434.72 246.42 433.27 224.00 433.16 201.53 C 432.67 196.07 433.52 189.13 428.52 185.45 C 421.88 181.13 413.59 183.49 406.20 182.59 C 404.95 180.24 403.91 177.79 402.94 175.32 C 400.14 175.31 397.34 175.32 394.54 175.35 M 466.51 222.81 C 468.81 253.31 469.36 283.97 467.58 314.51 C 472.89 313.55 478.16 312.36 483.43 311.18 C 480.58 292.93 480.55 274.43 479.37 256.04 C 478.65 243.60 479.06 231.12 480.45 218.74 C 475.79 220.08 471.15 221.45 466.51 222.81 M 87.23 223.56 C 86.96 239.63 85.44 255.64 84.35 271.66 C 88.68 270.82 93.02 269.98 97.37 269.20 C 97.14 252.57 97.88 235.96 98.12 219.33 C 94.49 220.75 90.89 222.22 87.23 223.56 M 327.35 292.47 C 316.60 297.30 305.74 301.99 295.43 307.73 C 295.87 309.99 296.32 312.26 296.79 314.52 C 306.87 308.87 317.01 302.94 328.32 300.12 C 332.32 309.22 337.31 318.17 344.95 324.73 C 347.44 324.34 350.28 321.20 347.98 318.95 C 342.07 312.97 337.52 305.74 334.58 297.87 C 345.60 294.69 356.97 292.67 367.72 288.57 C 368.21 286.71 368.62 284.84 369.01 282.96 C 354.83 284.79 341.50 290.49 327.35 292.47 Z" />
<path fill="#ffffff" opacity="1.00" d=" M 824.09 155.06 C 833.71 150.83 846.51 155.77 850.17 165.78 C 853.40 175.27 852.49 186.05 848.11 195.04 C 844.47 201.34 838.03 205.22 832.02 208.97 C 834.35 213.27 836.58 217.63 839.03 221.88 C 849.69 225.40 858.95 232.12 869.61 235.66 C 871.77 236.29 872.88 238.41 874.25 240.02 C 861.83 243.35 851.84 233.59 841.14 229.28 C 846.09 244.62 859.15 256.86 859.97 273.59 C 854.98 274.65 850.02 275.76 845.01 276.68 C 848.24 283.93 851.14 291.50 851.35 299.55 C 849.58 299.32 847.83 299.09 846.08 298.86 C 843.95 290.78 840.87 283.00 837.44 275.39 C 832.83 274.67 828.19 274.15 823.59 273.43 C 821.49 282.83 818.36 292.13 818.36 301.85 C 816.72 301.53 814.87 301.75 813.43 300.83 C 810.77 291.05 815.40 281.49 817.26 272.03 C 813.87 271.23 810.48 270.45 807.08 269.68 C 809.47 256.74 812.31 243.90 814.66 230.96 C 807.88 237.68 799.84 243.50 790.40 245.68 C 789.75 244.13 789.16 242.57 788.61 241.00 C 802.14 234.64 814.36 224.79 821.66 211.56 C 811.81 209.70 803.58 202.25 799.94 193.04 C 797.06 184.08 800.88 173.87 808.02 168.02 C 813.36 163.69 817.52 157.68 824.09 155.06 M 825.71 160.11 C 825.91 162.16 826.64 164.47 825.36 166.33 C 823.66 168.92 820.33 169.21 817.56 169.71 C 816.59 172.48 815.67 175.27 814.84 178.09 C 812.15 177.97 809.48 177.76 806.81 177.55 C 806.20 182.27 804.50 187.21 806.15 191.89 C 808.74 197.54 813.75 201.50 818.68 205.02 C 820.14 202.08 822.05 199.40 824.42 197.13 C 825.80 199.23 827.18 201.34 828.59 203.43 C 832.41 200.99 836.71 199.14 839.89 195.81 C 844.07 190.93 845.56 184.27 845.89 178.00 C 845.84 173.43 845.87 168.14 842.31 164.73 C 838.11 160.21 831.50 159.65 825.71 160.11 M 827.28 214.45 C 819.19 230.13 818.36 248.07 814.48 264.98 C 821.01 266.18 827.48 267.73 834.02 268.90 C 837.07 268.47 839.66 266.34 842.53 265.19 C 842.71 266.77 842.89 268.35 843.10 269.93 C 846.51 269.76 849.94 269.62 853.36 269.28 C 847.98 251.41 833.73 237.48 829.99 218.99 C 829.83 217.11 828.43 215.79 827.28 214.45 Z" />
</g>
<g id="#0e0d0dff">
<path fill="#0e0d0d" opacity="1.00" d=" M 27.03 33.02 C 319.68 32.99 612.34 33.01 905.00 33.01 C 904.99 161.00 905.03 289.00 904.97 416.99 C 612.29 417.34 319.61 416.99 26.93 417.18 C 27.11 289.13 26.92 161.07 27.03 33.02 M 33.21 39.44 C 33.18 163.23 33.42 287.02 33.08 410.80 C 213.05 411.16 393.01 410.89 572.97 410.94 C 681.61 410.91 790.26 411.18 898.90 410.74 C 898.61 381.50 898.34 352.26 898.97 323.02 C 853.46 321.88 807.92 324.05 762.42 321.89 C 763.44 320.93 764.42 319.91 765.40 318.90 C 765.79 319.62 766.56 321.06 766.95 321.78 C 809.57 322.15 852.20 321.24 894.81 322.17 C 895.31 320.30 895.89 318.47 896.61 316.67 C 896.80 318.62 896.96 320.56 897.18 322.51 C 899.95 319.00 899.91 314.32 899.96 310.07 C 899.86 262.40 899.96 214.73 899.93 167.06 C 899.86 155.38 900.21 143.68 899.01 132.05 C 898.22 101.17 898.77 70.29 898.76 39.41 C 610.24 39.34 321.73 39.29 33.21 39.44 Z" />
</g>
<g id="#cc0f15ff">
<path fill="#cc0f15" opacity="1.00" d=" M 296.44 131.13 C 302.80 131.20 309.15 131.08 315.51 131.25 C 316.06 136.99 316.50 142.74 316.94 148.50 C 313.54 148.48 310.14 148.42 306.75 148.56 C 306.00 160.14 305.91 172.34 311.10 183.03 C 327.75 182.59 344.43 182.20 361.06 183.16 C 367.87 183.59 372.91 190.41 372.37 197.01 C 371.84 202.69 370.53 208.30 368.74 213.72 C 360.87 236.88 343.32 255.32 323.90 269.49 C 321.54 269.47 319.17 269.41 316.82 269.32 C 316.66 263.04 316.21 256.77 316.14 250.49 C 332.24 245.73 347.38 235.41 355.17 220.22 C 356.84 216.63 358.60 212.93 359.06 208.96 C 358.65 205.48 356.09 202.84 354.10 200.13 C 335.41 200.07 316.71 199.80 298.01 200.12 C 296.92 177.14 296.82 154.13 296.44 131.13 Z" />
<path fill="#cc0f15" opacity="1.00" d=" M 761.61 132.08 C 807.41 132.12 853.21 132.19 899.01 132.05 C 900.21 143.68 899.86 155.38 899.93 167.06 C 899.96 214.73 899.86 262.40 899.96 310.07 C 899.91 314.32 899.95 319.00 897.18 322.51 C 896.96 320.56 896.80 318.62 896.61 316.67 C 895.89 318.47 895.31 320.30 894.81 322.17 C 852.20 321.24 809.57 322.15 766.95 321.78 C 766.56 321.06 765.79 319.62 765.40 318.90 C 764.42 319.91 763.44 320.93 762.42 321.89 L 761.47 321.94 C 761.70 258.65 761.43 195.36 761.61 132.08 M 824.09 155.06 C 817.52 157.68 813.36 163.69 808.02 168.02 C 800.88 173.87 797.06 184.08 799.94 193.04 C 803.58 202.25 811.81 209.70 821.66 211.56 C 814.36 224.79 802.14 234.64 788.61 241.00 C 789.16 242.57 789.75 244.13 790.40 245.68 C 799.84 243.50 807.88 237.68 814.66 230.96 C 812.31 243.90 809.47 256.74 807.08 269.68 C 810.48 270.45 813.87 271.23 817.26 272.03 C 815.40 281.49 810.77 291.05 813.43 300.83 C 814.87 301.75 816.72 301.53 818.36 301.85 C 818.36 292.13 821.49 282.83 823.59 273.43 C 828.19 274.15 832.83 274.67 837.44 275.39 C 840.87 283.00 843.95 290.78 846.08 298.86 C 847.83 299.09 849.58 299.32 851.35 299.55 C 851.14 291.50 848.24 283.93 845.01 276.68 C 850.02 275.76 854.98 274.65 859.97 273.59 C 859.15 256.86 846.09 244.62 841.14 229.28 C 851.84 233.59 861.83 243.35 874.25 240.02 C 872.88 238.41 871.77 236.29 869.61 235.66 C 858.95 232.12 849.69 225.40 839.03 221.88 C 836.58 217.63 834.35 213.27 832.02 208.97 C 838.03 205.22 844.47 201.34 848.11 195.04 C 852.49 186.05 853.40 175.27 850.17 165.78 C 846.51 155.77 833.71 150.83 824.09 155.06 Z" />
<path fill="#cc0f15" opacity="1.00" d=" M 825.71 160.11 C 831.50 159.65 838.11 160.21 842.31 164.73 C 845.87 168.14 845.84 173.43 845.89 178.00 C 845.56 184.27 844.07 190.93 839.89 195.81 C 836.71 199.14 832.41 200.99 828.59 203.43 C 827.18 201.34 825.80 199.23 824.42 197.13 C 822.05 199.40 820.14 202.08 818.68 205.02 C 813.75 201.50 808.74 197.54 806.15 191.89 C 804.50 187.21 806.20 182.27 806.81 177.55 C 809.48 177.76 812.15 177.97 814.84 178.09 C 815.67 175.27 816.59 172.48 817.56 169.71 C 820.33 169.21 823.66 168.92 825.36 166.33 C 826.64 164.47 825.91 162.16 825.71 160.11 Z" />
<path fill="#cc0f15" opacity="1.00" d=" M 79.55 174.97 C 85.73 171.58 90.73 177.69 93.26 182.62 C 118.54 183.00 143.84 182.21 169.12 183.04 C 169.73 188.05 170.33 193.07 170.95 198.09 C 167.63 199.33 164.29 200.51 160.96 201.72 C 159.34 223.64 162.55 245.51 166.00 267.09 C 161.28 269.02 155.94 269.56 150.97 270.91 C 149.42 247.36 148.61 223.74 148.93 200.14 C 126.30 199.33 103.62 199.14 81.03 200.88 C 81.15 192.21 79.97 183.61 79.55 174.97 Z" />
<path fill="#cc0f15" opacity="1.00" d=" M 195.17 173.52 C 201.38 172.70 206.34 177.54 207.94 183.14 C 229.05 182.36 250.18 182.39 271.28 183.30 C 271.34 188.13 271.43 192.97 271.59 197.80 C 268.24 199.16 264.88 200.50 261.46 201.69 C 260.89 223.48 261.87 245.32 264.54 266.95 C 259.54 268.21 254.60 269.69 249.55 270.74 C 251.30 247.14 250.46 223.45 249.78 199.82 C 232.08 199.02 214.34 199.53 196.65 200.41 C 196.09 191.45 195.50 182.49 195.17 173.52 Z" />
<path fill="#cc0f15" opacity="1.00" d=" M 562.63 175.91 C 564.88 175.03 567.13 174.14 569.38 173.25 C 571.15 175.96 572.87 178.70 574.62 181.43 C 581.10 181.72 587.69 181.64 594.00 183.31 C 597.23 183.97 599.43 186.89 600.40 189.89 C 601.76 194.12 601.59 198.65 601.69 203.05 C 601.49 224.71 602.99 246.33 604.39 267.93 C 600.06 269.21 595.84 270.84 591.48 272.01 C 589.73 249.02 594.09 225.35 587.10 202.95 C 579.84 200.35 572.11 199.65 564.46 199.37 C 563.87 191.55 563.31 183.72 562.63 175.91 Z" />
<path fill="#cc0f15" opacity="1.00" d=" M 463.38 174.55 C 469.22 173.57 474.39 177.52 476.40 182.80 C 491.94 182.76 507.49 182.22 523.02 183.10 C 526.61 183.12 530.13 184.72 532.52 187.41 C 537.21 192.71 538.43 200.26 537.50 207.10 C 535.42 227.37 524.07 245.68 509.36 259.34 C 503.54 264.58 498.00 270.76 490.34 273.25 C 489.21 265.86 488.82 258.37 489.00 250.90 C 497.79 248.90 506.42 245.22 513.05 238.99 C 517.34 235.07 520.20 229.93 522.88 224.86 C 526.70 217.31 527.52 207.67 522.51 200.45 C 503.66 199.59 484.78 200.09 465.93 200.04 C 463.49 191.95 463.71 183.03 463.38 174.55 Z" />
<path fill="#cc0f15" opacity="1.00" d=" M 620.87 175.25 C 623.61 175.17 626.35 175.11 629.09 175.05 C 630.05 177.62 631.04 180.18 632.08 182.72 C 637.49 182.78 642.90 182.88 648.30 183.21 C 648.14 188.54 649.45 194.00 648.35 199.23 C 645.70 201.74 641.67 200.85 638.37 201.50 C 638.82 220.23 641.97 239.76 652.50 255.66 C 659.07 237.98 665.17 220.05 668.99 201.57 C 666.73 201.04 664.38 199.92 663.64 197.53 C 662.20 192.80 663.26 187.76 662.55 182.91 C 670.94 182.70 679.33 182.60 687.72 182.75 C 688.29 188.45 689.30 194.11 689.78 199.83 C 686.94 200.25 684.13 200.78 681.34 201.36 C 674.74 218.63 667.70 235.74 661.65 253.22 C 673.92 251.58 687.60 250.87 697.36 242.31 C 706.95 230.55 710.32 215.20 712.87 200.59 C 709.52 200.42 706.19 200.15 702.86 199.91 C 702.12 194.24 701.62 188.56 701.09 182.88 C 710.59 182.69 720.10 182.67 729.61 182.82 C 729.18 187.60 730.06 192.63 728.26 197.21 C 727.35 199.73 724.82 200.91 722.46 201.68 C 716.97 218.97 716.01 238.54 704.10 253.11 C 695.20 262.86 681.78 266.70 669.09 268.40 C 659.06 269.74 648.92 270.05 638.86 271.17 C 633.54 248.49 630.83 225.32 628.76 202.15 C 626.49 201.16 623.64 200.91 621.83 199.27 C 621.43 191.27 621.15 183.25 620.87 175.25 Z" />
<path fill="#cc0f15" opacity="1.00" d=" M 394.54 175.35 C 397.34 175.32 400.14 175.31 402.94 175.32 C 403.91 177.79 404.95 180.24 406.20 182.59 C 413.59 183.49 421.88 181.13 428.52 185.45 C 433.52 189.13 432.67 196.07 433.16 201.53 C 433.27 224.00 434.72 246.42 435.18 268.88 C 431.43 270.01 427.69 271.13 423.90 272.07 C 421.76 267.65 422.65 262.68 422.50 257.96 C 422.19 239.72 424.14 221.01 418.83 203.26 C 411.27 200.94 403.37 199.89 395.47 199.79 C 395.21 191.64 394.91 183.50 394.54 175.35 Z" />
<path fill="#cc0f15" opacity="1.00" d=" M 827.28 214.45 C 828.43 215.79 829.83 217.11 829.99 218.99 C 833.73 237.48 847.98 251.41 853.36 269.28 C 849.94 269.62 846.51 269.76 843.10 269.93 C 842.89 268.35 842.71 266.77 842.53 265.19 C 839.66 266.34 837.07 268.47 834.02 268.90 C 827.48 267.73 821.01 266.18 814.48 264.98 C 818.36 248.07 819.19 230.13 827.28 214.45 Z" />
<path fill="#cc0f15" opacity="1.00" d=" M 466.51 222.81 C 471.15 221.45 475.79 220.08 480.45 218.74 C 479.06 231.12 478.65 243.60 479.37 256.04 C 480.55 274.43 480.58 292.93 483.43 311.18 C 478.16 312.36 472.89 313.55 467.58 314.51 C 469.36 283.97 468.81 253.31 466.51 222.81 Z" />
<path fill="#cc0f15" opacity="1.00" d=" M 87.23 223.56 C 90.89 222.22 94.49 220.75 98.12 219.33 C 97.88 235.96 97.14 252.57 97.37 269.20 C 93.02 269.98 88.68 270.82 84.35 271.66 C 85.44 255.64 86.96 239.63 87.23 223.56 Z" />
<path fill="#cc0f15" opacity="1.00" d=" M 327.35 292.47 C 341.50 290.49 354.83 284.79 369.01 282.96 C 368.62 284.84 368.21 286.71 367.72 288.57 C 356.97 292.67 345.60 294.69 334.58 297.87 C 337.52 305.74 342.07 312.97 347.98 318.95 C 350.28 321.20 347.44 324.34 344.95 324.73 C 337.31 318.17 332.32 309.22 328.32 300.12 C 317.01 302.94 306.87 308.87 296.79 314.52 C 296.32 312.26 295.87 309.99 295.43 307.73 C 305.74 301.99 316.60 297.30 327.35 292.47 Z" />
</g>
</svg>
